# Blender v2.79 (sub 0) OBJ File: 'cat_lightpole_2.blend'
# www.blender.org
o none
v -0.024782 0.437500 0.037089
v 0.024782 0.562500 -0.037089
v -0.037089 0.437500 0.024782
v -0.008702 0.562500 0.043750
v -0.008702 0.437500 0.043750
v 0.024782 0.437500 -0.037089
v 0.008702 0.562500 -0.043750
v -0.024782 0.562500 0.037089
v 0.008702 0.437500 0.043750
v 0.008702 0.437500 -0.043750
v -0.008702 0.562500 -0.043750
v 0.024782 0.562500 0.037089
v 0.024782 0.437500 0.037089
v -0.008702 0.437500 -0.043750
v -0.024782 0.562500 -0.037089
v 0.008702 0.562500 0.043750
v 0.037089 0.562500 0.024782
v 0.037089 0.437500 0.024782
v -0.024782 0.437500 -0.037089
v -0.037089 0.562500 -0.024782
v -0.037089 0.437500 -0.024782
v 0.043750 0.562500 0.008702
v 0.043750 0.437500 0.008702
v -0.043750 0.562500 -0.008702
v -0.043750 0.437500 -0.008702
v -0.043750 0.437500 0.008702
v 0.043750 0.562500 -0.008702
v 0.043750 0.437500 -0.008702
v 0.037089 0.562500 -0.024782
v 0.037089 0.437500 -0.024782
v -0.043750 0.562500 0.008702
v -0.037089 0.562500 0.024782
vt 0.125000 0.625000
vt 0.375000 0.625000
vt 0.375000 0.875000
vt 0.125000 0.875000
vt 0.125000 0.625000
vt 0.375000 0.625000
vt 0.375000 0.875000
vt 0.125000 0.875000
vt 0.125000 0.625000
vt 0.375000 0.625000
vt 0.375000 0.875000
vt 0.125000 0.875000
vt 0.125000 0.625000
vt 0.375000 0.625000
vt 0.375000 0.875000
vt 0.125000 0.875000
vt 0.125000 0.625000
vt 0.375000 0.625000
vt 0.375000 0.875000
vt 0.125000 0.875000
vt 0.125000 0.625000
vt 0.375000 0.625000
vt 0.375000 0.875000
vt 0.125000 0.875000
vt 0.125000 0.625000
vt 0.375000 0.625000
vt 0.375000 0.875000
vt 0.125000 0.875000
vt 0.125000 0.625000
vt 0.375000 0.625000
vt 0.375000 0.875000
vt 0.125000 0.875000
vt 0.125000 0.625000
vt 0.375000 0.625000
vt 0.375000 0.875000
vt 0.125000 0.875000
vt 0.125000 0.625000
vt 0.375000 0.625000
vt 0.375000 0.875000
vt 0.125000 0.875000
vt 0.125000 0.625000
vt 0.375000 0.625000
vt 0.375000 0.875000
vt 0.125000 0.875000
vt 0.125000 0.625000
vt 0.375000 0.625000
vt 0.375000 0.875000
vt 0.125000 0.875000
vt 0.125000 0.625000
vt 0.375000 0.625000
vt 0.375000 0.875000
vt 0.125000 0.875000
vt 0.125000 0.625000
vt 0.375000 0.625000
vt 0.375000 0.875000
vt 0.125000 0.875000
vt 0.125000 0.625000
vt 0.375000 0.625000
vt 0.375000 0.875000
vt 0.125000 0.875000
vt 0.125000 0.625000
vt 0.375000 0.625000
vt 0.375000 0.875000
vt 0.125000 0.875000
vn 1.0000 0.0000 0.0000
vn 0.0000 -0.0000 1.0000
vn -0.3827 0.0000 -0.9239
vn 0.7071 -0.0000 0.7071
vn -1.0000 0.0000 0.0000
vn 0.0000 0.0000 -1.0000
vn 0.7071 0.0000 -0.7071
vn -0.7071 -0.0000 0.7071
vn 0.9239 0.0000 -0.3827
vn -0.9239 0.0000 0.3827
vn -0.7071 0.0000 -0.7071
vn 0.3827 -0.0000 0.9239
vn 0.3827 0.0000 -0.9239
vn 0.9239 0.0000 0.3827
vn -0.9239 0.0000 -0.3827
vn -0.3827 -0.0000 0.9239
vn 0.0000 -1.0000 0.0000
vn 0.0000 1.0000 -0.0000
s 1
f 23/1/1 28/2/1 27/3/1 22/4/1
f 5/5/2 9/6/2 16/7/2 4/8/2
f 14/9/3 19/10/3 15/11/3 11/12/3
f 13/13/4 18/14/4 17/15/4 12/16/4
f 25/17/5 26/18/5 31/19/5 24/20/5
f 10/21/6 14/22/6 11/23/6 7/24/6
f 30/25/7 6/26/7 2/27/7 29/28/7
f 3/29/8 1/30/8 8/31/8 32/32/8
f 28/33/9 30/34/9 29/35/9 27/36/9
f 26/37/10 3/38/10 32/39/10 31/40/10
f 19/41/11 21/42/11 20/43/11 15/44/11
f 9/45/12 13/46/12 12/47/12 16/48/12
f 6/49/13 10/50/13 7/51/13 2/52/13
f 18/53/14 23/54/14 22/55/14 17/56/14
f 21/57/15 25/58/15 24/59/15 20/60/15
f 1/61/16 5/62/16 4/63/16 8/64/16
f 28/2/17 23/1/17 18/53/17 13/13/17 9/45/17 5/5/17 1/61/17 3/29/17 26/37/17 25/17/17 21/57/17 19/41/17 14/9/17 10/21/17 6/49/17 30/25/17
f 17/15/18 22/4/18 27/36/18 29/28/18 2/52/18 7/24/18 11/12/18 15/44/18 20/60/18 24/20/18 31/40/18 32/32/18 8/64/18 4/8/18 16/48/18 12/16/18
o up
v -0.024782 0.562500 0.037089
v 0.024782 1.000000 -0.037089
v -0.037089 0.562500 0.024782
v -0.008702 1.000000 0.043750
v -0.008702 0.562500 0.043750
v 0.024782 0.562500 -0.037089
v 0.008702 1.000000 -0.043750
v -0.024782 1.000000 0.037090
v 0.008702 0.562500 0.043750
v 0.008702 0.562500 -0.043750
v -0.008702 1.000000 -0.043750
v 0.024782 1.000000 0.037090
v 0.024782 0.562500 0.037089
v -0.008702 0.562500 -0.043750
v -0.024782 1.000000 -0.037089
v 0.008702 1.000000 0.043750
v 0.037089 1.000000 0.024782
v 0.037089 0.562500 0.024782
v -0.024782 0.562500 -0.037089
v -0.037089 1.000000 -0.024782
v -0.037089 0.562500 -0.024782
v 0.043750 1.000000 0.008702
v 0.043750 0.562500 0.008702
v -0.043750 1.000000 -0.008702
v -0.043750 0.562500 -0.008702
v -0.043750 0.562500 0.008702
v 0.043750 1.000000 -0.008702
v 0.043750 0.562500 -0.008702
v 0.037089 1.000000 -0.024782
v 0.037089 0.562500 -0.024782
v -0.043750 1.000000 0.008702
v -0.037089 1.000000 0.024782
v -0.030978 1.000000 0.046362
v 0.030978 1.062500 -0.046362
v -0.046362 1.000000 0.030978
v -0.010878 1.062500 0.054688
v -0.010878 1.000000 0.054688
v 0.030978 1.000000 -0.046362
v 0.010878 1.062500 -0.054687
v -0.030978 1.062500 0.046362
v 0.010878 1.000000 0.054688
v 0.010878 1.000000 -0.054687
v -0.010878 1.062500 -0.054687
v 0.030978 1.062500 0.046362
v 0.030978 1.000000 0.046362
v -0.010878 1.000000 -0.054687
v -0.030978 1.062500 -0.046362
v 0.010878 1.062500 0.054688
v 0.046362 1.062500 0.030978
v 0.046362 1.000000 0.030978
v -0.030978 1.000000 -0.046362
v -0.046362 1.062500 -0.030978
v -0.046362 1.000000 -0.030978
v 0.054688 1.062500 0.010878
v 0.054688 1.000000 0.010878
v -0.054688 1.062500 -0.010878
v -0.054688 1.000000 -0.010878
v -0.054688 1.000000 0.010878
v 0.054688 1.062500 -0.010878
v 0.054688 1.000000 -0.010878
v 0.046362 1.062500 -0.030978
v 0.046362 1.000000 -0.030978
v -0.054688 1.062500 0.010878
v -0.046362 1.062500 0.030978
vt 0.125000 0.625000
vt 0.375000 0.625000
vt 0.375000 0.875000
vt 0.125000 0.875000
vt 0.125000 0.625000
vt 0.375000 0.625000
vt 0.375000 0.875000
vt 0.125000 0.875000
vt 0.125000 0.625000
vt 0.375000 0.625000
vt 0.375000 0.875000
vt 0.125000 0.875000
vt 0.125000 0.625000
vt 0.375000 0.625000
vt 0.375000 0.875000
vt 0.125000 0.875000
vt 0.125000 0.625000
vt 0.375000 0.625000
vt 0.375000 0.875000
vt 0.125000 0.875000
vt 0.125000 0.625000
vt 0.375000 0.625000
vt 0.375000 0.875000
vt 0.125000 0.875000
vt 0.125000 0.625000
vt 0.375000 0.625000
vt 0.375000 0.875000
vt 0.125000 0.875000
vt 0.125000 0.625000
vt 0.375000 0.625000
vt 0.375000 0.875000
vt 0.125000 0.875000
vt 0.125000 0.625000
vt 0.375000 0.625000
vt 0.375000 0.875000
vt 0.125000 0.875000
vt 0.125000 0.625000
vt 0.375000 0.625000
vt 0.375000 0.875000
vt 0.125000 0.875000
vt 0.125000 0.625000
vt 0.375000 0.625000
vt 0.375000 0.875000
vt 0.125000 0.875000
vt 0.125000 0.875000
vt 0.125000 0.875000
vt 0.125000 0.875000
vt 0.125000 0.875000
vt 0.125000 0.875000
vt 0.125000 0.625000
vt 0.375000 0.625000
vt 0.375000 0.875000
vt 0.125000 0.625000
vt 0.375000 0.625000
vt 0.375000 0.875000
vt 0.125000 0.625000
vt 0.375000 0.625000
vt 0.375000 0.875000
vt 0.125000 0.625000
vt 0.375000 0.625000
vt 0.375000 0.875000
vt 0.125000 0.625000
vt 0.375000 0.625000
vt 0.375000 0.875000
vt 0.625000 0.125000
vt 0.875000 0.125000
vt 0.875000 0.375000
vt 0.625000 0.375000
vt 0.625000 0.125000
vt 0.875000 0.125000
vt 0.875000 0.375000
vt 0.625000 0.375000
vt 0.625000 0.125000
vt 0.875000 0.125000
vt 0.875000 0.375000
vt 0.625000 0.375000
vt 0.625000 0.125000
vt 0.875000 0.125000
vt 0.875000 0.375000
vt 0.625000 0.375000
vt 0.625000 0.125000
vt 0.875000 0.125000
vt 0.875000 0.375000
vt 0.625000 0.375000
vt 0.625000 0.125000
vt 0.875000 0.125000
vt 0.875000 0.375000
vt 0.625000 0.375000
vt 0.625000 0.125000
vt 0.875000 0.125000
vt 0.875000 0.375000
vt 0.625000 0.375000
vt 0.625000 0.093750
vt 0.906250 0.093750
vt 0.906250 0.375000
vt 0.625000 0.375000
vt 0.625000 0.125000
vt 0.875000 0.125000
vt 0.875000 0.375000
vt 0.625000 0.375000
vt 0.625000 0.093750
vt 0.906250 0.093750
vt 0.906250 0.375000
vt 0.625000 0.375000
vt 0.625000 0.375000
vt 0.625000 0.375000
vt 0.625000 0.375000
vt 0.625000 0.375000
vt 0.625000 0.375000
vt 0.625000 0.125000
vt 0.875000 0.125000
vt 0.875000 0.375000
vt 0.625000 0.125000
vt 0.625000 0.125000
vt 0.625000 0.125000
vt 0.625000 0.125000
vt 0.875000 0.125000
vt 0.875000 0.375000
vt 0.875000 0.125000
vt 0.875000 0.375000
vt 0.625000 0.375000
vt 0.875000 0.125000
vt 0.875000 0.375000
vt 0.875000 0.125000
vt 0.875000 0.375000
vt 0.625000 0.125000
vt 0.875000 0.125000
vt 0.875000 0.375000
vn -0.3827 -0.0000 0.9239
vn -0.9239 -0.0000 0.3827
vn 0.3827 0.0000 -0.9239
vn 0.3827 -0.0000 0.9239
vn 0.0000 -0.0000 1.0000
vn -0.9239 0.0000 -0.3827
vn 1.0000 0.0000 0.0000
vn -0.7071 -0.0000 0.7071
vn 0.7071 -0.0000 0.7071
vn 0.9239 0.0000 -0.3827
vn 0.9239 -0.0000 0.3827
vn 0.0000 1.0000 0.0000
vn 0.7071 0.0000 -0.7071
vn -1.0000 0.0000 0.0000
vn 0.0000 0.0000 -1.0000
vn -0.3827 0.0000 -0.9239
vn 0.0000 -1.0000 0.0000
vn -0.7071 0.0000 -0.7071
s 1
f 33/65/19 37/66/19 36/67/19 40/68/19
f 58/69/20 35/70/20 64/71/20 63/72/20
f 38/73/21 42/74/21 39/75/21 34/76/21
f 41/77/22 45/78/22 44/79/22 48/80/22
f 37/81/23 41/82/23 48/83/23 36/84/23
f 53/85/24 57/86/24 56/87/24 52/88/24
f 55/89/25 60/90/25 59/91/25 54/92/25
f 35/93/26 33/94/26 40/95/26 64/96/26
f 45/97/27 50/98/27 49/99/27 44/100/27
f 60/101/28 62/102/28 61/103/28 59/104/28
f 50/105/29 55/106/29 54/107/29 49/108/29
f 48/83/30 44/100/30 49/108/30 54/92/30 59/104/30 61/109/30 34/76/30 39/110/30 43/111/30 47/112/30 52/88/30 56/113/30 63/72/30 64/96/30 40/68/30 36/84/30
f 62/114/31 38/115/31 34/116/31 61/109/31
f 57/117/32 58/118/32 63/119/32 56/113/32
f 42/120/33 46/121/33 43/122/33 39/110/33
f 46/123/34 51/124/34 47/125/34 43/111/34
f 35/70/35 58/69/35 57/117/35 53/85/35 51/126/35 46/123/35 42/120/35 38/73/35 62/114/35 60/101/35 55/89/35 50/105/35 45/97/35 41/77/35 37/81/35 33/65/35
f 51/126/36 53/127/36 52/128/36 47/112/36
f 70/129/21 74/130/21 71/131/21 66/132/21
f 94/133/31 70/134/31 66/135/31 93/136/31
f 67/137/26 65/138/26 72/139/26 96/140/26
f 69/141/23 73/142/23 80/143/23 68/144/23
f 78/145/34 83/146/34 79/147/34 75/148/34
f 85/149/24 89/150/24 88/151/24 84/152/24
f 74/153/33 78/154/33 75/155/33 71/156/33
f 87/157/25 92/158/25 91/159/25 86/160/25
f 77/161/27 82/162/27 81/163/27 76/164/27
f 89/165/32 90/166/32 95/167/32 88/168/32
f 80/143/30 76/164/30 81/169/30 86/160/30 91/170/30 93/136/30 66/132/30 71/156/30 75/148/30 79/171/30 84/152/30 88/168/30 95/172/30 96/140/30 72/173/30 68/144/30
f 90/174/20 67/175/20 96/176/20 95/172/20
f 92/158/35 87/157/35 82/177/35 77/161/35 73/178/35 69/141/35 65/179/35 67/137/35 90/174/35 89/165/35 85/149/35 83/180/35 78/145/35 74/153/35 70/129/35 94/133/35
f 79/171/36 83/180/36 85/181/36 84/182/36
f 73/178/22 77/183/22 76/184/22 80/185/22
f 65/179/19 69/186/19 68/187/19 72/173/19
f 82/177/29 87/188/29 86/189/29 81/169/29
f 92/190/28 94/191/28 93/192/28 91/170/28
o down
v -0.024782 0.062500 0.037089
v 0.024782 0.437500 -0.037089
v -0.037089 0.062500 0.024782
v -0.008702 0.437500 0.043750
v -0.008702 0.062500 0.043750
v 0.024782 0.062500 -0.037090
v 0.008702 0.437500 -0.043750
v -0.024782 0.437500 0.037089
v 0.008702 0.062500 0.043750
v 0.008702 0.062500 -0.043750
v -0.008702 0.437500 -0.043750
v 0.024782 0.437500 0.037089
v 0.024782 0.062500 0.037089
v -0.008702 0.062500 -0.043750
v -0.024782 0.437500 -0.037089
v 0.008702 0.437500 0.043750
v 0.037089 0.437500 0.024782
v 0.037089 0.062500 0.024782
v -0.024782 0.062500 -0.037090
v -0.037089 0.437500 -0.024782
v -0.037089 0.062500 -0.024782
v 0.043750 0.437500 0.008702
v 0.043750 0.062500 0.008702
v -0.043750 0.437500 -0.008702
v -0.043750 0.062500 -0.008702
v -0.043750 0.062500 0.008702
v 0.043750 0.437500 -0.008702
v 0.043750 0.062500 -0.008702
v 0.037089 0.437500 -0.024782
v 0.037089 0.062500 -0.024782
v -0.043750 0.437500 0.008702
v -0.037089 0.437500 0.024782
vt 0.125000 0.625000
vt 0.375000 0.625000
vt 0.375000 0.875000
vt 0.125000 0.875000
vt 0.125000 0.625000
vt 0.375000 0.625000
vt 0.375000 0.875000
vt 0.125000 0.875000
vt 0.125000 0.625000
vt 0.375000 0.625000
vt 0.375000 0.875000
vt 0.125000 0.875000
vt 0.125000 0.625000
vt 0.375000 0.625000
vt 0.375000 0.875000
vt 0.125000 0.875000
vt 0.125000 0.625000
vt 0.375000 0.625000
vt 0.375000 0.875000
vt 0.125000 0.875000
vt 0.125000 0.625000
vt 0.375000 0.625000
vt 0.375000 0.875000
vt 0.125000 0.875000
vt 0.125000 0.625000
vt 0.375000 0.625000
vt 0.375000 0.875000
vt 0.125000 0.875000
vt 0.125000 0.625000
vt 0.375000 0.625000
vt 0.375000 0.875000
vt 0.125000 0.875000
vt 0.125000 0.625000
vt 0.375000 0.625000
vt 0.375000 0.875000
vt 0.125000 0.875000
vt 0.125000 0.625000
vt 0.375000 0.625000
vt 0.375000 0.875000
vt 0.125000 0.875000
vt 0.125000 0.625000
vt 0.375000 0.625000
vt 0.375000 0.875000
vt 0.125000 0.875000
vt 0.125000 0.625000
vt 0.375000 0.625000
vt 0.375000 0.875000
vt 0.125000 0.875000
vt 0.125000 0.625000
vt 0.375000 0.625000
vt 0.375000 0.875000
vt 0.125000 0.875000
vt 0.125000 0.625000
vt 0.375000 0.625000
vt 0.375000 0.875000
vt 0.125000 0.875000
vt 0.125000 0.625000
vt 0.375000 0.625000
vt 0.375000 0.875000
vt 0.125000 0.875000
vt 0.125000 0.625000
vt 0.375000 0.625000
vt 0.375000 0.875000
vt 0.125000 0.875000
vn 0.3827 0.0000 -0.9239
vn 0.7071 0.0000 -0.7071
vn -1.0000 0.0000 0.0000
vn -0.9239 -0.0000 0.3827
vn 0.0000 0.0000 -1.0000
vn -0.3827 0.0000 -0.9239
vn 1.0000 0.0000 0.0000
vn -0.7071 0.0000 -0.7071
vn -0.3827 -0.0000 0.9239
vn 0.7071 -0.0000 0.7071
vn 0.3827 -0.0000 0.9239
vn 0.9239 0.0000 -0.3827
vn 0.0000 -0.0000 1.0000
vn -0.9239 0.0000 -0.3827
vn 0.9239 -0.0000 0.3827
vn -0.7071 -0.0000 0.7071
vn 0.0000 -1.0000 -0.0000
vn 0.0000 1.0000 0.0000
s 1
f 102/193/37 106/194/37 103/195/37 98/196/37
f 126/197/38 102/198/38 98/199/38 125/200/38
f 121/201/39 122/202/39 127/203/39 120/204/39
f 122/205/40 99/206/40 128/207/40 127/208/40
f 106/209/41 110/210/41 107/211/41 103/212/41
f 110/213/42 115/214/42 111/215/42 107/216/42
f 119/217/43 124/218/43 123/219/43 118/220/43
f 115/221/44 117/222/44 116/223/44 111/224/44
f 97/225/45 101/226/45 100/227/45 104/228/45
f 109/229/46 114/230/46 113/231/46 108/232/46
f 105/233/47 109/234/47 108/235/47 112/236/47
f 124/237/48 126/238/48 125/239/48 123/240/48
f 101/241/49 105/242/49 112/243/49 100/244/49
f 117/245/50 121/246/50 120/247/50 116/248/50
f 114/249/51 119/250/51 118/251/51 113/252/51
f 99/253/52 97/254/52 104/255/52 128/256/52
f 124/218/53 119/217/53 114/249/53 109/229/53 105/233/53 101/241/53 97/225/53 99/253/53 122/205/53 121/201/53 117/245/53 115/221/53 110/213/53 106/209/53 102/193/53 126/197/53
f 98/196/54 103/195/54 107/211/54 111/215/54 116/223/54 120/247/54 127/203/54 128/207/54 104/255/54 100/227/54 112/243/54 108/235/54 113/231/54 118/251/54 123/219/54 125/239/54
