# Blender v2.79 (sub 0) OBJ File: ''
# www.blender.org
o hexadecagon
v 0.031250 -0.079718 -0.141253
v 0.031250 -0.141253 -0.079718
v 0.031250 -0.123912 -0.185447
v 0.031250 -0.185447 -0.123912
v -0.031250 -0.123912 -0.185447
v -0.031250 -0.185447 -0.123912
v -0.031250 -0.079718 -0.141253
v -0.031250 -0.141253 -0.079718
v 0.031250 -0.019594 -0.161008
v 0.031250 -0.099994 -0.127705
v 0.031250 -0.043512 -0.218750
v 0.031250 -0.123912 -0.185447
v -0.031250 -0.043512 -0.218750
v -0.031250 -0.123912 -0.185447
v -0.031250 -0.019594 -0.161008
v -0.031250 -0.099994 -0.127705
v 0.031250 0.043512 -0.156250
v 0.031250 -0.043512 -0.156250
v 0.031250 0.043512 -0.218750
v 0.031250 -0.043512 -0.218750
v -0.031250 0.043512 -0.218750
v -0.031250 -0.043512 -0.218750
v -0.031250 0.043512 -0.156250
v -0.031250 -0.043512 -0.156250
v 0.031250 0.099994 -0.127705
v 0.031250 0.019594 -0.161008
v 0.031250 0.123912 -0.185447
v 0.031250 0.043512 -0.218750
v -0.031250 0.123912 -0.185447
v -0.031250 0.043512 -0.218750
v -0.031250 0.099994 -0.127705
v -0.031250 0.019594 -0.161008
v 0.031250 0.141253 -0.079718
v 0.031250 0.079718 -0.141253
v 0.031250 0.185447 -0.123912
v 0.031250 0.123912 -0.185447
v -0.031250 0.185447 -0.123912
v -0.031250 0.123912 -0.185447
v -0.031250 0.141253 -0.079718
v -0.031250 0.079718 -0.141253
v 0.031250 0.185447 0.123912
v 0.031250 0.123912 0.185447
v 0.031250 0.141253 0.079718
v 0.031250 0.079718 0.141253
v -0.031250 0.141253 0.079718
v -0.031250 0.079718 0.141253
v -0.031250 0.185447 0.123912
v -0.031250 0.123912 0.185447
v 0.031250 0.123912 0.185447
v 0.031250 0.043512 0.218750
v 0.031250 0.099994 0.127705
v 0.031250 0.019594 0.161007
v -0.031250 0.099994 0.127705
v -0.031250 0.019594 0.161007
v -0.031250 0.123912 0.185447
v -0.031250 0.043512 0.218750
v 0.031250 0.043512 0.218750
v 0.031250 -0.043512 0.218750
v 0.031250 0.043512 0.156250
v 0.031250 -0.043512 0.156250
v -0.031250 0.043512 0.156250
v -0.031250 -0.043512 0.156250
v -0.031250 0.043512 0.218750
v -0.031250 -0.043512 0.218750
v 0.031250 -0.043512 0.218750
v 0.031250 -0.123912 0.185447
v 0.031250 -0.019594 0.161007
v 0.031250 -0.099994 0.127705
v -0.031250 -0.019594 0.161007
v -0.031250 -0.099994 0.127705
v -0.031250 -0.043512 0.218750
v -0.031250 -0.123912 0.185447
v 0.031250 -0.123912 0.185447
v 0.031250 -0.185447 0.123912
v 0.031250 -0.079718 0.141253
v 0.031250 -0.141253 0.079718
v -0.031250 -0.079718 0.141253
v -0.031250 -0.141253 0.079718
v -0.031250 -0.123912 0.185447
v -0.031250 -0.185447 0.123912
v 0.031250 -0.127705 0.099994
v 0.031250 -0.185447 0.123912
v 0.031250 -0.161007 0.019594
v 0.031250 -0.218750 0.043512
v -0.031250 -0.161007 0.019594
v -0.031250 -0.218750 0.043512
v -0.031250 -0.127705 0.099994
v -0.031250 -0.185447 0.123912
v 0.031250 -0.156250 0.043512
v 0.031250 -0.218750 0.043512
v 0.031250 -0.156250 -0.043512
v 0.031250 -0.218750 -0.043512
v -0.031250 -0.156250 -0.043512
v -0.031250 -0.218750 -0.043512
v -0.031250 -0.156250 0.043512
v -0.031250 -0.218750 0.043512
v 0.031250 -0.161007 -0.019594
v 0.031250 -0.218750 -0.043512
v 0.031250 -0.127705 -0.099994
v 0.031250 -0.185447 -0.123912
v -0.031250 -0.127705 -0.099994
v -0.031250 -0.185447 -0.123912
v -0.031250 -0.161007 -0.019594
v -0.031250 -0.218750 -0.043512
v 0.031250 0.218750 -0.043512
v 0.031250 0.161008 -0.019594
v 0.031250 0.185447 -0.123912
v 0.031250 0.127705 -0.099994
v -0.031250 0.185447 -0.123912
v -0.031250 0.127705 -0.099994
v -0.031250 0.218750 -0.043512
v -0.031250 0.161008 -0.019594
v 0.031250 0.218750 0.043512
v 0.031250 0.156250 0.043512
v 0.031250 0.218750 -0.043512
v 0.031250 0.156250 -0.043512
v -0.031250 0.218750 -0.043512
v -0.031250 0.156250 -0.043512
v -0.031250 0.218750 0.043512
v -0.031250 0.156250 0.043512
v 0.031250 0.185447 0.123912
v 0.031250 0.127705 0.099994
v 0.031250 0.218750 0.043512
v 0.031250 0.161008 0.019594
v -0.031250 0.218750 0.043512
v -0.031250 0.161008 0.019594
v -0.031250 0.185447 0.123912
v -0.031250 0.127705 0.099994
v 0.031250 0.156250 0.031250
v 0.031250 -0.156250 0.031250
v 0.031250 0.156250 -0.031250
v 0.031250 -0.156250 -0.031250
v -0.031250 0.156250 -0.031250
v -0.031250 -0.156250 -0.031250
v -0.031250 0.156250 0.031250
v -0.031250 -0.156250 0.031250
v 0.031250 0.031250 -0.031250
v 0.031250 -0.031250 -0.031250
v 0.031250 0.031250 -0.156250
v 0.031250 -0.031250 -0.156250
v -0.031250 0.031250 -0.156250
v -0.031250 -0.031250 -0.156250
v -0.031250 0.031250 -0.031250
v -0.031250 -0.031250 -0.031250
v 0.031250 0.031250 0.156250
v 0.031250 -0.031250 0.156250
v 0.031250 0.031250 0.031250
v 0.031250 -0.031250 0.031250
v -0.031250 0.031250 0.031250
v -0.031250 -0.031250 0.031250
v -0.031250 0.031250 0.156250
v -0.031250 -0.031250 0.156250
vt 0.000000 1.000000
vt 0.000000 0.937500
vt 0.062500 1.000000
vt 0.062500 0.937500
vt 0.000000 1.000000
vt 0.000000 0.937500
vt 0.062500 1.000000
vt 0.062500 0.937500
vt 0.000000 0.937500
vt 0.062500 0.937500
vt 0.000000 1.000000
vt 0.062500 1.000000
vt 0.000000 1.000000
vt 0.000000 0.937500
vt 0.062500 1.000000
vt 0.062500 0.937500
vt 0.000000 1.000000
vt 0.000000 0.937500
vt 0.062500 1.000000
vt 0.062500 0.937500
vt 0.000000 1.000000
vt 0.000000 0.937500
vt 0.062500 1.000000
vt 0.062500 0.937500
vt 0.000000 1.000000
vt 0.000000 0.937500
vt 0.062500 1.000000
vt 0.062500 0.937500
vt 0.000000 0.937500
vt 0.062500 0.937500
vt 0.000000 1.000000
vt 0.062500 1.000000
vt 0.000000 1.000000
vt 0.000000 0.937500
vt 0.062500 1.000000
vt 0.062500 0.937500
vt 0.000000 1.000000
vt 0.000000 0.937500
vt 0.062500 1.000000
vt 0.062500 0.937500
vt 0.000000 1.000000
vt 0.000000 0.937500
vt 0.062500 1.000000
vt 0.062500 0.937500
vt 0.000000 1.000000
vt 0.000000 0.937500
vt 0.062500 1.000000
vt 0.062500 0.937500
vt 0.000000 0.937500
vt 0.062500 0.937500
vt 0.000000 1.000000
vt 0.062500 1.000000
vt 0.000000 1.000000
vt 0.000000 0.937500
vt 0.062500 1.000000
vt 0.062500 0.937500
vt 0.000000 1.000000
vt 0.000000 0.937500
vt 0.062500 1.000000
vt 0.062500 0.937500
vt 0.000000 1.000000
vt 0.000000 0.937500
vt 0.062500 1.000000
vt 0.062500 0.937500
vt 0.000000 1.000000
vt 0.000000 0.937500
vt 0.062500 1.000000
vt 0.062500 0.937500
vt 0.000000 0.937500
vt 0.062500 0.937500
vt 0.000000 1.000000
vt 0.062500 1.000000
vt 0.000000 1.000000
vt 0.000000 0.937500
vt 0.062500 1.000000
vt 0.062500 0.937500
vt 0.000000 1.000000
vt 0.000000 0.937500
vt 0.062500 1.000000
vt 0.062500 0.937500
vt 0.000000 1.000000
vt 0.000000 0.937500
vt 0.062500 1.000000
vt 0.062500 0.937500
vt 0.000000 1.000000
vt 0.000000 0.937500
vt 0.062500 1.000000
vt 0.062500 0.937500
vt 0.000000 0.937500
vt 0.062500 0.937500
vt 0.000000 1.000000
vt 0.062500 1.000000
vt 0.000000 1.000000
vt 0.000000 0.937500
vt 0.062500 1.000000
vt 0.062500 0.937500
vt 0.000000 1.000000
vt 0.000000 0.937500
vt 0.062500 1.000000
vt 0.062500 0.937500
vt 0.000000 1.000000
vt 0.000000 0.937500
vt 0.062500 1.000000
vt 0.062500 0.937500
vt 0.000000 1.000000
vt 0.000000 0.937500
vt 0.062500 1.000000
vt 0.062500 0.937500
vt 0.000000 0.937500
vt 0.062500 0.937500
vt 0.000000 1.000000
vt 0.062500 1.000000
vt 0.000000 1.000000
vt 0.000000 0.937500
vt 0.062500 1.000000
vt 0.062500 0.937500
vt 0.000000 1.000000
vt 0.000000 0.937500
vt 0.062500 1.000000
vt 0.062500 0.937500
vt 0.000000 1.000000
vt 0.000000 0.937500
vt 0.062500 1.000000
vt 0.062500 0.937500
vt 0.000000 1.000000
vt 0.000000 0.937500
vt 0.062500 1.000000
vt 0.062500 0.937500
vt 0.000000 0.937500
vt 0.062500 0.937500
vt 0.000000 1.000000
vt 0.062500 1.000000
vt 0.000000 1.000000
vt 0.000000 0.937500
vt 0.062500 1.000000
vt 0.062500 0.937500
vt 0.000000 1.000000
vt 0.000000 0.937500
vt 0.062500 1.000000
vt 0.062500 0.937500
vt 0.000000 1.000000
vt 0.000000 0.937500
vt 0.062500 1.000000
vt 0.062500 0.937500
vt 0.000000 1.000000
vt 0.000000 0.937500
vt 0.062500 1.000000
vt 0.062500 0.937500
vt 0.000000 0.937500
vt 0.062500 0.937500
vt 0.000000 1.000000
vt 0.062500 1.000000
vt 0.000000 1.000000
vt 0.000000 0.937500
vt 0.062500 1.000000
vt 0.062500 0.937500
vt 0.000000 1.000000
vt 0.000000 0.937500
vt 0.062500 1.000000
vt 0.062500 0.937500
vt 0.000000 1.000000
vt 0.000000 0.937500
vt 0.062500 1.000000
vt 0.062500 0.937500
vt 0.000000 1.000000
vt 0.000000 0.937500
vt 0.062500 1.000000
vt 0.062500 0.937500
vt 0.000000 0.937500
vt 0.062500 0.937500
vt 0.000000 1.000000
vt 0.062500 1.000000
vt 0.000000 1.000000
vt 0.000000 0.937500
vt 0.062500 1.000000
vt 0.062500 0.937500
vt 0.000000 1.000000
vt 0.000000 0.937500
vt 0.062500 1.000000
vt 0.062500 0.937500
vt 0.000000 1.000000
vt 0.000000 0.937500
vt 0.062500 1.000000
vt 0.062500 0.937500
vt 0.000000 1.000000
vt 0.000000 0.937500
vt 0.062500 1.000000
vt 0.062500 0.937500
vt 0.000000 0.937500
vt 0.062500 0.937500
vt 0.000000 1.000000
vt 0.062500 1.000000
vt 0.000000 1.000000
vt 0.000000 0.937500
vt 0.062500 1.000000
vt 0.062500 0.937500
vt 0.000000 1.000000
vt 0.000000 0.937500
vt 0.062500 1.000000
vt 0.062500 0.937500
vt 0.000000 1.000000
vt 0.000000 0.937500
vt 0.062500 1.000000
vt 0.062500 0.937500
vt 0.000000 1.000000
vt 0.000000 0.937500
vt 0.062500 1.000000
vt 0.062500 0.937500
vt 0.000000 0.937500
vt 0.062500 0.937500
vt 0.000000 1.000000
vt 0.062500 1.000000
vt 0.000000 1.000000
vt 0.000000 0.937500
vt 0.062500 1.000000
vt 0.062500 0.937500
vt 0.000000 1.000000
vt 0.000000 0.937500
vt 0.062500 1.000000
vt 0.062500 0.937500
vt 0.000000 1.000000
vt 0.000000 0.937500
vt 0.062500 1.000000
vt 0.062500 0.937500
vt 0.000000 1.000000
vt 0.000000 0.937500
vt 0.062500 1.000000
vt 0.062500 0.937500
vt 0.000000 0.937500
vt 0.062500 0.937500
vt 0.000000 1.000000
vt 0.062500 1.000000
vt 0.000000 1.000000
vt 0.000000 0.937500
vt 0.062500 1.000000
vt 0.062500 0.937500
vt 0.000000 1.000000
vt 0.000000 0.937500
vt 0.062500 1.000000
vt 0.062500 0.937500
vt 0.000000 1.000000
vt 0.000000 0.937500
vt 0.062500 1.000000
vt 0.062500 0.937500
vt 0.000000 1.000000
vt 0.000000 0.937500
vt 0.062500 1.000000
vt 0.062500 0.937500
vt 0.000000 0.937500
vt 0.062500 0.937500
vt 0.000000 1.000000
vt 0.062500 1.000000
vt 0.000000 1.000000
vt 0.000000 0.937500
vt 0.062500 1.000000
vt 0.062500 0.937500
vt 0.000000 1.000000
vt 0.000000 0.937500
vt 0.062500 1.000000
vt 0.062500 0.937500
vt 0.000000 1.000000
vt 0.000000 0.937500
vt 0.062500 1.000000
vt 0.062500 0.937500
vt 0.000000 1.000000
vt 0.000000 0.937500
vt 0.062500 1.000000
vt 0.062500 0.937500
vt 0.000000 0.937500
vt 0.062500 0.937500
vt 0.000000 1.000000
vt 0.062500 1.000000
vt 0.000000 1.000000
vt 0.000000 0.937500
vt 0.062500 1.000000
vt 0.062500 0.937500
vt 0.000000 1.000000
vt 0.000000 0.937500
vt 0.062500 1.000000
vt 0.062500 0.937500
vt 0.000000 1.000000
vt 0.000000 0.937500
vt 0.062500 1.000000
vt 0.062500 0.937500
vt 0.000000 1.000000
vt 0.000000 0.937500
vt 0.062500 1.000000
vt 0.062500 0.937500
vt 0.000000 0.937500
vt 0.062500 0.937500
vt 0.000000 1.000000
vt 0.062500 1.000000
vt 0.000000 1.000000
vt 0.000000 0.937500
vt 0.062500 1.000000
vt 0.062500 0.937500
vt 0.000000 1.000000
vt 0.000000 0.937500
vt 0.062500 1.000000
vt 0.062500 0.937500
vt 0.000000 1.000000
vt 0.000000 0.937500
vt 0.062500 1.000000
vt 0.062500 0.937500
vt 0.000000 1.000000
vt 0.000000 0.937500
vt 0.062500 1.000000
vt 0.062500 0.937500
vt 0.000000 0.937500
vt 0.062500 0.937500
vt 0.000000 1.000000
vt 0.062500 1.000000
vt 0.000000 1.000000
vt 0.000000 0.937500
vt 0.062500 1.000000
vt 0.062500 0.937500
vt 0.000000 1.000000
vt 0.000000 0.937500
vt 0.062500 1.000000
vt 0.062500 0.937500
vt 0.000000 1.000000
vt 0.000000 0.687500
vt 0.062500 1.000000
vt 0.062500 0.687500
vt 0.000000 1.000000
vt 0.000000 0.687500
vt 0.062500 1.000000
vt 0.062500 0.687500
vt 0.000000 0.937500
vt 0.062500 0.937500
vt 0.000000 1.000000
vt 0.000000 0.937500
vt 0.062500 1.000000
vt 0.062500 0.937500
vt 0.000000 1.000000
vt 0.000000 0.687500
vt 0.062500 1.000000
vt 0.062500 0.687500
vt 0.000000 1.000000
vt 0.000000 0.687500
vt 0.062500 1.000000
vt 0.062500 0.687500
vt 0.000000 1.000000
vt 0.000000 0.937500
vt 0.125000 1.000000
vt 0.125000 0.937500
vt 0.000000 1.000000
vt 0.000000 0.937500
vt 0.125000 1.000000
vt 0.125000 0.937500
vt 0.000000 0.875000
vt 0.062500 1.000000
vt 0.062500 0.875000
vt 0.000000 1.000000
vt 0.000000 0.875000
vt 0.062500 1.000000
vt 0.062500 0.875000
vt 0.000000 1.000000
vt 0.000000 0.937500
vt 0.062500 1.000000
vt 0.062500 0.937500
vt 0.000000 1.000000
vt 0.000000 0.937500
vt 0.062500 1.000000
vt 0.062500 0.937500
vt 0.000000 1.000000
vt 0.000000 0.937500
vt 0.125000 1.000000
vt 0.125000 0.937500
vt 0.000000 1.000000
vt 0.000000 0.937500
vt 0.125000 1.000000
vt 0.125000 0.937500
vt 0.000000 0.875000
vt 0.062500 1.000000
vt 0.062500 0.875000
vt 0.000000 1.000000
vt 0.000000 0.875000
vt 0.062500 1.000000
vt 0.062500 0.875000
vt 0.000000 1.000000
vt 0.000000 0.937500
vt 0.062500 1.000000
vt 0.062500 0.937500
vt 0.000000 1.000000
vt 0.000000 0.937500
vt 0.062500 1.000000
vt 0.062500 0.937500
vn 1.0000 0.0000 0.0000
vn -1.0000 0.0000 0.0000
vn 0.0000 0.7071 -0.7071
vn 0.0000 -0.7071 0.7071
vn 0.0000 0.7071 0.7071
vn 0.0000 -0.7071 -0.7071
vn 0.0000 0.9239 -0.3827
vn 0.0000 -0.9239 0.3827
vn 0.0000 0.3827 0.9239
vn 0.0000 -0.3827 -0.9239
vn 0.0000 1.0000 0.0000
vn 0.0000 -1.0000 -0.0000
vn 0.0000 0.0000 1.0000
vn 0.0000 0.0000 -1.0000
vn 0.0000 0.9239 0.3827
vn 0.0000 -0.9239 -0.3827
vn 0.0000 -0.3827 0.9239
vn 0.0000 0.3827 -0.9239
s 1
f 1/1/1 2/2/1 3/3/1
f 2/2/1 4/4/1 3/3/1
f 5/5/2 6/6/2 7/7/2
f 6/6/2 8/8/2 7/7/2
f 5/5/3 7/9/3 3/3/3
f 7/9/3 1/10/3 3/3/3
f 8/11/4 6/6/4 2/12/4
f 6/6/4 4/4/4 2/12/4
f 7/13/5 8/14/5 1/15/5
f 8/14/5 2/16/5 1/15/5
f 3/17/6 4/18/6 5/19/6
f 4/18/6 6/20/6 5/19/6
f 9/21/1 10/22/1 11/23/1
f 10/22/1 12/24/1 11/23/1
f 13/25/2 14/26/2 15/27/2
f 14/26/2 16/28/2 15/27/2
f 13/25/7 15/29/7 11/23/7
f 15/29/7 9/30/7 11/23/7
f 16/31/8 14/26/8 10/32/8
f 14/26/8 12/24/8 10/32/8
f 15/33/9 16/34/9 9/35/9
f 16/34/9 10/36/9 9/35/9
f 11/37/10 12/38/10 13/39/10
f 12/38/10 14/40/10 13/39/10
f 17/41/1 18/42/1 19/43/1
f 18/42/1 20/44/1 19/43/1
f 21/45/2 22/46/2 23/47/2
f 22/46/2 24/48/2 23/47/2
f 21/45/11 23/49/11 19/43/11
f 23/49/11 17/50/11 19/43/11
f 24/51/12 22/46/12 18/52/12
f 22/46/12 20/44/12 18/52/12
f 23/53/13 24/54/13 17/55/13
f 24/54/13 18/56/13 17/55/13
f 19/57/14 20/58/14 21/59/14
f 20/58/14 22/60/14 21/59/14
f 25/61/1 26/62/1 27/63/1
f 26/62/1 28/64/1 27/63/1
f 29/65/2 30/66/2 31/67/2
f 30/66/2 32/68/2 31/67/2
f 29/65/15 31/69/15 27/63/15
f 31/69/15 25/70/15 27/63/15
f 32/71/16 30/66/16 26/72/16
f 30/66/16 28/64/16 26/72/16
f 31/73/17 32/74/17 25/75/17
f 32/74/17 26/76/17 25/75/17
f 27/77/18 28/78/18 29/79/18
f 28/78/18 30/80/18 29/79/18
f 33/81/1 34/82/1 35/83/1
f 34/82/1 36/84/1 35/83/1
f 37/85/2 38/86/2 39/87/2
f 38/86/2 40/88/2 39/87/2
f 37/85/5 39/89/5 35/83/5
f 39/89/5 33/90/5 35/83/5
f 40/91/6 38/86/6 34/92/6
f 38/86/6 36/84/6 34/92/6
f 39/93/4 40/94/4 33/95/4
f 40/94/4 34/96/4 33/95/4
f 35/97/3 36/98/3 37/99/3
f 36/98/3 38/100/3 37/99/3
f 41/101/1 42/102/1 43/103/1
f 42/102/1 44/104/1 43/103/1
f 45/105/2 46/106/2 47/107/2
f 46/106/2 48/108/2 47/107/2
f 45/105/3 47/109/3 43/103/3
f 47/109/3 41/110/3 43/103/3
f 48/111/4 46/106/4 42/112/4
f 46/106/4 44/104/4 42/112/4
f 47/113/5 48/114/5 41/115/5
f 48/114/5 42/116/5 41/115/5
f 43/117/6 44/118/6 45/119/6
f 44/118/6 46/120/6 45/119/6
f 49/121/1 50/122/1 51/123/1
f 50/122/1 52/124/1 51/123/1
f 53/125/2 54/126/2 55/127/2
f 54/126/2 56/128/2 55/127/2
f 53/125/7 55/129/7 51/123/7
f 55/129/7 49/130/7 51/123/7
f 56/131/8 54/126/8 50/132/8
f 54/126/8 52/124/8 50/132/8
f 55/133/9 56/134/9 49/135/9
f 56/134/9 50/136/9 49/135/9
f 51/137/10 52/138/10 53/139/10
f 52/138/10 54/140/10 53/139/10
f 57/141/1 58/142/1 59/143/1
f 58/142/1 60/144/1 59/143/1
f 61/145/2 62/146/2 63/147/2
f 62/146/2 64/148/2 63/147/2
f 61/145/11 63/149/11 59/143/11
f 63/149/11 57/150/11 59/143/11
f 64/151/12 62/146/12 58/152/12
f 62/146/12 60/144/12 58/152/12
f 63/153/13 64/154/13 57/155/13
f 64/154/13 58/156/13 57/155/13
f 59/157/14 60/158/14 61/159/14
f 60/158/14 62/160/14 61/159/14
f 65/161/1 66/162/1 67/163/1
f 66/162/1 68/164/1 67/163/1
f 69/165/2 70/166/2 71/167/2
f 70/166/2 72/168/2 71/167/2
f 69/165/15 71/169/15 67/163/15
f 71/169/15 65/170/15 67/163/15
f 72/171/16 70/166/16 66/172/16
f 70/166/16 68/164/16 66/172/16
f 71/173/17 72/174/17 65/175/17
f 72/174/17 66/176/17 65/175/17
f 67/177/18 68/178/18 69/179/18
f 68/178/18 70/180/18 69/179/18
f 73/181/1 74/182/1 75/183/1
f 74/182/1 76/184/1 75/183/1
f 77/185/2 78/186/2 79/187/2
f 78/186/2 80/188/2 79/187/2
f 77/185/5 79/189/5 75/183/5
f 79/189/5 73/190/5 75/183/5
f 80/191/6 78/186/6 74/192/6
f 78/186/6 76/184/6 74/192/6
f 79/193/4 80/194/4 73/195/4
f 80/194/4 74/196/4 73/195/4
f 75/197/3 76/198/3 77/199/3
f 76/198/3 78/200/3 77/199/3
f 81/201/1 82/202/1 83/203/1
f 82/202/1 84/204/1 83/203/1
f 85/205/2 86/206/2 87/207/2
f 86/206/2 88/208/2 87/207/2
f 85/205/7 87/209/7 83/203/7
f 87/209/7 81/210/7 83/203/7
f 88/211/8 86/206/8 82/212/8
f 86/206/8 84/204/8 82/212/8
f 87/213/9 88/214/9 81/215/9
f 88/214/9 82/216/9 81/215/9
f 83/217/10 84/218/10 85/219/10
f 84/218/10 86/220/10 85/219/10
f 89/221/1 90/222/1 91/223/1
f 90/222/1 92/224/1 91/223/1
f 93/225/2 94/226/2 95/227/2
f 94/226/2 96/228/2 95/227/2
f 93/225/11 95/229/11 91/223/11
f 95/229/11 89/230/11 91/223/11
f 96/231/12 94/226/12 90/232/12
f 94/226/12 92/224/12 90/232/12
f 95/233/13 96/234/13 89/235/13
f 96/234/13 90/236/13 89/235/13
f 91/237/14 92/238/14 93/239/14
f 92/238/14 94/240/14 93/239/14
f 97/241/1 98/242/1 99/243/1
f 98/242/1 100/244/1 99/243/1
f 101/245/2 102/246/2 103/247/2
f 102/246/2 104/248/2 103/247/2
f 101/245/15 103/249/15 99/243/15
f 103/249/15 97/250/15 99/243/15
f 104/251/16 102/246/16 98/252/16
f 102/246/16 100/244/16 98/252/16
f 103/253/17 104/254/17 97/255/17
f 104/254/17 98/256/17 97/255/17
f 99/257/18 100/258/18 101/259/18
f 100/258/18 102/260/18 101/259/18
f 105/261/1 106/262/1 107/263/1
f 106/262/1 108/264/1 107/263/1
f 109/265/2 110/266/2 111/267/2
f 110/266/2 112/268/2 111/267/2
f 109/265/7 111/269/7 107/263/7
f 111/269/7 105/270/7 107/263/7
f 112/271/8 110/266/8 106/272/8
f 110/266/8 108/264/8 106/272/8
f 111/273/9 112/274/9 105/275/9
f 112/274/9 106/276/9 105/275/9
f 107/277/10 108/278/10 109/279/10
f 108/278/10 110/280/10 109/279/10
f 113/281/1 114/282/1 115/283/1
f 114/282/1 116/284/1 115/283/1
f 117/285/2 118/286/2 119/287/2
f 118/286/2 120/288/2 119/287/2
f 117/285/11 119/289/11 115/283/11
f 119/289/11 113/290/11 115/283/11
f 120/291/12 118/286/12 114/292/12
f 118/286/12 116/284/12 114/292/12
f 119/293/13 120/294/13 113/295/13
f 120/294/13 114/296/13 113/295/13
f 115/297/14 116/298/14 117/299/14
f 116/298/14 118/300/14 117/299/14
f 121/301/1 122/302/1 123/303/1
f 122/302/1 124/304/1 123/303/1
f 125/305/2 126/306/2 127/307/2
f 126/306/2 128/308/2 127/307/2
f 125/305/15 127/309/15 123/303/15
f 127/309/15 121/310/15 123/303/15
f 128/311/16 126/306/16 122/312/16
f 126/306/16 124/304/16 122/312/16
f 127/313/17 128/314/17 121/315/17
f 128/314/17 122/316/17 121/315/17
f 123/317/18 124/318/18 125/319/18
f 124/318/18 126/320/18 125/319/18
f 129/321/1 130/322/1 131/323/1
f 130/322/1 132/324/1 131/323/1
f 133/325/2 134/326/2 135/327/2
f 134/326/2 136/328/2 135/327/2
f 133/325/11 135/329/11 131/323/11
f 135/329/11 129/330/11 131/323/11
f 136/331/12 134/332/12 130/333/12
f 134/332/12 132/334/12 130/333/12
f 135/335/13 136/336/13 129/337/13
f 136/336/13 130/338/13 129/337/13
f 131/339/14 132/340/14 133/341/14
f 132/340/14 134/342/14 133/341/14
f 137/343/1 138/344/1 139/345/1
f 138/344/1 140/346/1 139/345/1
f 141/347/2 142/348/2 143/349/2
f 142/348/2 144/350/2 143/349/2
f 141/347/11 143/351/11 139/352/11
f 143/351/11 137/353/11 139/352/11
f 144/354/12 142/355/12 138/356/12
f 142/355/12 140/357/12 138/356/12
f 143/358/13 144/359/13 137/360/13
f 144/359/13 138/361/13 137/360/13
f 139/362/14 140/363/14 141/364/14
f 140/363/14 142/365/14 141/364/14
f 145/366/1 146/367/1 147/368/1
f 146/367/1 148/369/1 147/368/1
f 149/370/2 150/371/2 151/372/2
f 150/371/2 152/373/2 151/372/2
f 149/370/11 151/374/11 147/375/11
f 151/374/11 145/376/11 147/375/11
f 152/377/12 150/378/12 146/379/12
f 150/378/12 148/380/12 146/379/12
f 151/381/13 152/382/13 145/383/13
f 152/382/13 146/384/13 145/383/13
f 147/385/14 148/386/14 149/387/14
f 148/386/14 150/388/14 149/387/14
