# Blender v2.93.6 OBJ File: ''
# www.blender.org
mtllib pheonixtrack.mtl
o Cube_Cube.012
v -0.312000 -0.030000 -0.200000
v -0.312000 0.030000 -0.200000
v -0.312000 -0.030000 0.200000
v -0.312000 0.030000 0.200000
v 0.312000 -0.030000 -0.200000
v 0.312000 0.030000 -0.200000
v 0.312000 -0.030000 0.200000
v 0.312000 0.030000 0.200000
v 0.007719 -0.045173 -0.152277
v 0.007719 0.014827 -0.152277
v 0.262277 -0.045173 0.102281
v 0.262277 0.014827 0.102281
v 0.051276 -0.045173 -0.195835
v 0.051276 0.014827 -0.195835
v 0.305835 -0.045173 0.058724
v 0.305835 0.014827 0.058724
v -0.007719 -0.045173 -0.062277
v -0.007719 0.014827 -0.062277
v -0.262277 -0.045173 0.192281
v -0.262277 0.014827 0.192281
v -0.051277 -0.045173 -0.105835
v -0.051277 0.014827 -0.105835
v -0.305835 -0.045173 0.148724
v -0.305835 0.014827 0.148724
vt 0.508066 0.883066
vt 0.508066 0.991934
vt 0.508066 0.991934
vt 0.508066 0.883066
vt 0.616934 0.991934
vt 0.616934 0.991934
vt 0.616934 0.883066
vt 0.616934 0.883066
vt 0.563847 0.896055
vt 0.608259 0.965338
vt 0.608259 0.965338
vt 0.563847 0.896055
vt 0.615859 0.953483
vt 0.615859 0.953483
vt 0.571446 0.884199
vt 0.571446 0.884199
vt 0.561153 0.920550
vt 0.516741 0.989834
vt 0.516741 0.989834
vt 0.561153 0.920550
vt 0.509141 0.977978
vt 0.509141 0.977978
vt 0.553554 0.908695
vt 0.553554 0.908695
vn -1.0000 0.0000 0.0000
vn 0.0000 0.0000 1.0000
vn 1.0000 0.0000 0.0000
vn 0.0000 0.0000 -1.0000
vn 0.0000 -1.0000 0.0000
vn 0.0000 1.0000 -0.0000
vn -0.7071 0.0000 0.7071
vn 0.7071 0.0000 0.7071
vn 0.7071 -0.0000 -0.7071
vn -0.7071 0.0000 -0.7071
usemtl Material.034
s off
f 1/1/1 3/2/1 4/3/1 2/4/1
f 3/2/2 7/5/2 8/6/2 4/3/2
f 7/5/3 5/7/3 6/8/3 8/6/3
f 5/7/4 1/1/4 2/4/4 6/8/4
f 3/2/5 1/1/5 5/7/5 7/5/5
f 8/6/6 6/8/6 2/4/6 4/3/6
f 9/9/7 11/10/7 12/11/7 10/12/7
f 11/10/8 15/13/8 16/14/8 12/11/8
f 15/13/9 13/15/9 14/16/9 16/14/9
f 13/15/10 9/9/10 10/12/10 14/16/10
f 11/10/5 9/9/5 13/15/5 15/13/5
f 16/14/6 14/16/6 10/12/6 12/11/6
f 17/17/10 19/18/10 20/19/10 18/20/10
f 19/18/9 23/21/9 24/22/9 20/19/9
f 23/21/8 21/23/8 22/24/8 24/22/8
f 21/23/7 17/17/7 18/20/7 22/24/7
f 19/18/6 17/17/6 21/23/6 23/21/6
f 24/22/5 22/24/5 18/20/5 20/19/5
