# Blender v2.83.1 OBJ File: 'mowerblade.blend'
# www.blender.org
mtllib mowerblade.mtl
o Cube_Cube.001
v -0.495415 -0.028724 0.059870
v -0.495415 -0.028724 -0.059870
v -0.495415 0.028724 -0.059870
v 0.495415 -0.028724 0.059870
v 0.495415 0.028724 0.059870
v 0.495415 -0.028724 -0.059870
v 0.000000 -0.028724 -0.059870
v 0.000000 0.028724 -0.059870
v 0.000000 -0.028724 0.059870
v 0.000000 0.028724 0.059870
v -0.495415 -0.028724 0.000000
v -0.495415 0.028724 0.000000
v 0.495415 -0.028724 0.000000
v 0.495415 0.028724 0.000000
v 0.000000 0.028724 0.000000
v 0.000000 -0.028724 0.000000
v 0.029943 0.028724 -0.059870
v 0.029943 -0.028724 0.059870
v 0.029943 -0.028724 -0.059870
v 0.029943 0.028724 0.059870
v 0.029943 0.028724 0.000000
v 0.029943 -0.028724 0.000000
v -0.029920 -0.028724 -0.059870
v -0.029920 0.028724 0.059870
v -0.029920 0.028724 -0.059870
v -0.029920 -0.028724 0.059870
v -0.029920 -0.028724 0.000000
v -0.029920 0.028724 0.000000
vt 0.862650 0.181274
vt 1.000000 0.181274
vt 1.000000 0.241698
vt 0.862650 0.241698
vt 0.862650 0.241698
vt 1.000000 0.241698
vt 1.000000 0.302123
vt 0.862650 0.302123
vt 1.000000 0.060425
vt 0.862650 0.060425
vt 0.862650 0.000000
vt 1.000000 0.000000
vt 0.862650 0.302123
vt 1.000000 0.302123
vt 1.000000 0.362547
vt 0.862650 0.362547
vt 0.444808 0.530220
vt 0.444808 1.000000
vt 0.301666 1.000000
vt 0.301666 0.530220
vt 0.862650 0.120849
vt 0.103285 0.530220
vt 0.103285 0.500000
vt 0.206571 0.500000
vt 0.206571 0.530220
vt 0.444808 0.469803
vt 0.444808 0.500000
vt 0.301666 0.500000
vt 0.301666 0.469803
vt 0.725300 0.060417
vt 0.587951 0.060417
vt 0.587951 0.030220
vt 0.725300 0.030220
vt 0.587951 0.469803
vt 0.587951 0.500000
vt 0.000000 0.530220
vt 0.000000 0.500000
vt 0.000000 0.469803
vt 0.000000 0.000000
vt 0.103285 0.000000
vt 0.103285 0.469803
vt 0.587951 0.530220
vt 0.587951 1.000000
vt 1.000000 0.120849
vt 0.301666 0.000000
vt 0.725301 0.469780
vt 0.725300 0.000000
vt 0.862650 0.000000
vt 0.862650 0.469780
vt 0.206571 1.000000
vt 0.103286 1.000000
vt 0.587951 0.000000
vt 0.725300 0.000000
vt 0.587951 0.000000
vt 0.444808 0.000000
vt 0.725301 0.530220
vt 0.587951 0.530220
vt 0.206571 0.469803
vn -1.0000 0.0000 0.0000
vn 1.0000 0.0000 0.0000
vn 0.0000 -1.0000 0.0000
vn 0.0000 1.0000 0.0000
vn 0.0000 0.0000 1.0000
vn 0.0000 0.0000 -1.0000
vn 0.0000 0.7216 0.6924
vn 0.0000 0.7216 -0.6924
usemtl None
s off
f 11/1/1 12/2/1 3/3/1 2/4/1
f 21/5/2 22/6/2 19/7/2 17/8/2
f 13/9/2 14/10/2 5/11/2 4/12/2
f 28/13/1 27/14/1 26/15/1 24/16/1
f 22/17/3 13/18/3 4/19/3 18/20/3
f 11/1/1 1/21/1 12/2/1
f 21/22/4 15/23/4 10/24/4 20/25/4
f 27/26/3 16/27/3 9/28/3 26/29/3
f 18/20/5 20/25/5 10/24/5 9/28/5
f 23/30/6 25/31/6 8/32/6 7/33/6
f 23/34/3 7/35/3 16/27/3 27/26/3
f 17/36/4 8/37/4 15/23/4 21/22/4
f 25/38/4 3/39/4 12/40/4 28/41/4
f 19/42/3 6/43/3 13/18/3 22/17/3
f 6/44/2 14/10/2 13/9/2
f 28/41/7 12/40/7 1/45/7 26/29/7
f 7/35/3 19/42/3 22/17/3 16/27/3
f 21/46/8 14/47/8 6/48/8 19/49/8
f 4/19/5 5/50/5 20/25/5 18/20/5
f 14/51/4 21/22/4 20/25/4 5/50/4
f 16/27/3 22/17/3 18/20/3 9/28/3
f 7/33/6 8/32/6 17/52/6 19/53/6
f 8/37/4 25/38/4 28/41/4 15/23/4
f 2/54/3 23/34/3 27/26/3 11/55/3
f 2/56/6 3/57/6 25/31/6 23/30/6
f 11/55/3 27/26/3 26/29/3 1/45/3
f 15/23/4 28/41/4 24/58/4 10/24/4
f 9/28/5 10/24/5 24/58/5 26/29/5
