# Blender v2.93.6 OBJ File: ''
# www.blender.org
mtllib shed.mtl
o Cube.003
v -4.000001 -0.036809 7.119412
v -4.000001 -0.036808 -0.000001
v 4.000001 -0.036808 -0.000001
v 4.000001 -0.036809 7.119412
v -4.000001 0.023192 -0.000001
v 4.000001 0.023192 -0.000001
v 4.000001 0.023191 7.119412
v -4.000001 0.023191 7.119412
vt 0.252064 0.877064
vt 0.252064 0.997936
vt 0.372936 0.997936
vt 0.372936 0.877064
vt 0.252064 0.997936
vt 0.372936 0.997936
vt 0.372936 0.877064
vt 0.252064 0.877064
vn 0.0000 -1.0000 -0.0000
vn 0.0000 0.0000 -1.0000
vn 1.0000 0.0000 0.0000
vn 0.0000 1.0000 0.0000
vn -1.0000 0.0000 0.0000
vn 0.0000 0.0000 1.0000
usemtl Material.003
s 1
f 1/1/1 2/2/1 3/3/1 4/4/1
f 5/5/2 6/6/2 3/3/2 2/2/2
f 6/6/3 7/7/3 4/4/3 3/3/3
f 7/7/4 6/6/4 5/5/4 8/8/4
f 8/8/5 5/5/5 2/2/5 1/1/5
f 7/7/6 8/8/6 1/1/6 4/4/6
o Cube.004
v -4.000001 3.963191 7.119412
v -4.000001 4.263191 6.200000
v 4.000001 4.263191 6.200000
v 4.000001 3.963191 7.119412
v 4.000001 4.463191 4.900001
v 4.000001 4.523191 4.900001
v 4.000001 4.323192 6.200000
v 4.000001 4.023191 7.119412
v -4.000001 4.323192 6.200000
v -4.000001 4.023191 7.119412
v -4.000001 4.523191 4.900001
v -4.000001 4.723191 3.100001
v -4.000001 4.663192 3.100001
v -4.000001 4.463191 4.900001
v -4.000001 4.763192 1.400001
v 4.000001 4.763192 1.400001
v 4.000001 4.663192 3.100001
v 4.000001 4.723191 3.100001
v 4.000001 4.823193 1.400001
v 4.000001 4.903193 -0.000000
v -4.000001 4.903193 -0.000000
v -4.000001 4.823193 1.400001
v 4.000001 4.843192 -0.000000
v -4.000001 4.843192 -0.000000
vt 0.381406 0.881406
vt 0.381406 0.895894
vt 0.493594 0.895894
vt 0.493594 0.881406
vt 0.493594 0.916380
vt 0.493594 0.916380
vt 0.493594 0.895894
vt 0.493594 0.881406
vt 0.381406 0.895894
vt 0.381406 0.881406
vt 0.381406 0.916380
vt 0.381406 0.944744
vt 0.381406 0.944744
vt 0.381406 0.916380
vt 0.381406 0.971532
vt 0.493594 0.971532
vt 0.493594 0.944744
vt 0.493594 0.944744
vt 0.493594 0.971532
vt 0.493594 0.993593
vt 0.381406 0.993593
vt 0.381406 0.971532
vt 0.493594 0.993593
vt 0.381406 0.993593
vn 0.0000 -0.9507 -0.3102
vn 1.0000 0.0000 0.0000
vn 0.0000 0.9507 0.3102
vn -1.0000 0.0000 0.0000
vn 0.0000 0.0000 1.0000
vn 0.0000 0.9884 0.1521
vn 0.0000 -0.9884 -0.1521
vn 0.0000 -0.9983 -0.0587
vn 0.0000 -0.9983 -0.0579
vn 0.0000 -0.9939 -0.1104
vn 0.0000 0.9939 0.1104
vn 0.0000 0.9983 0.0579
vn 0.0000 0.9984 0.0570
vn 0.0000 0.9983 0.0587
vn 0.0000 0.0000 -1.0000
vn 0.0000 -0.9984 -0.0570
usemtl Material.003
s 1
f 9/9/7 10/10/7 11/11/7 12/12/7
f 11/11/8 13/13/8 14/14/8 15/15/8
f 15/15/8 16/16/8 12/12/8 11/11/8
f 16/16/9 15/15/9 17/17/9 18/18/9
f 18/18/10 17/17/10 10/10/10 9/9/10
f 16/16/11 18/18/11 9/9/11 12/12/11
f 19/19/10 20/20/10 21/21/10 22/22/10
f 15/15/12 14/14/12 19/19/12 17/17/12
f 10/10/13 22/22/13 13/13/13 11/11/13
f 17/17/10 19/19/10 22/22/10 10/10/10
f 21/21/14 23/23/15 24/24/15 25/25/14
f 22/22/16 21/21/16 25/25/16 13/13/16
f 13/13/8 25/25/8 26/26/8 14/14/8
f 14/14/17 26/26/17 20/20/17 19/19/17
f 27/27/18 28/28/19 29/29/19 30/30/18
f 25/25/8 24/24/8 27/27/8 26/26/8
f 26/26/20 27/27/18 30/30/18 20/20/20
f 20/20/10 30/30/10 23/23/10 21/21/10
f 29/29/21 28/28/21 31/31/21 32/32/21
f 30/30/10 29/29/10 32/32/10 23/23/10
f 23/23/15 32/32/22 31/31/22 24/24/15
f 24/24/8 31/31/8 28/28/8 27/27/8
o Cylinder
v -3.800000 0.023192 0.114402
v -3.800000 4.843976 0.114403
v -3.780491 4.843976 0.116324
v -3.780491 0.023192 0.116323
v -3.761732 4.843976 0.122015
v -3.761732 0.023192 0.122014
v -3.744443 4.843976 0.131256
v -3.744443 0.023192 0.131255
v -3.729289 4.843976 0.143692
v -3.729289 0.023192 0.143691
v -3.716853 4.843976 0.158846
v -3.716853 0.023192 0.158845
v -3.707612 4.843976 0.176134
v -3.707612 0.023192 0.176133
v -3.701921 4.843976 0.194894
v -3.701921 0.023192 0.194893
v -3.700000 4.843976 0.214403
v -3.700000 0.023192 0.214402
v -3.701921 4.843976 0.233912
v -3.701921 0.023192 0.233911
v -3.707612 4.843976 0.252671
v -3.707612 0.023192 0.252670
v -3.716853 4.843976 0.269960
v -3.716853 0.023192 0.269959
v -3.729289 4.843976 0.285113
v -3.729289 0.023192 0.285112
v -3.744443 4.843976 0.297550
v -3.744443 0.023192 0.297549
v -3.761732 4.843976 0.306791
v -3.761732 0.023192 0.306790
v -3.780491 4.843976 0.312481
v -3.780491 0.023192 0.312480
v -3.800000 4.843976 0.314403
v -3.800000 0.023192 0.314402
v -3.819509 4.843976 0.312481
v -3.819509 0.023192 0.312480
v -3.838268 4.843976 0.306791
v -3.838268 0.023192 0.306790
v -3.855557 4.843976 0.297550
v -3.855557 0.023192 0.297549
v -3.870711 4.843976 0.285113
v -3.870711 0.023192 0.285112
v -3.883147 4.843976 0.269960
v -3.883147 0.023192 0.269959
v -3.892388 4.843976 0.252671
v -3.892388 0.023192 0.252670
v -3.898078 4.843976 0.233912
v -3.898078 0.023192 0.233911
v -3.900000 4.843976 0.214403
v -3.900000 0.023192 0.214402
v -3.898078 4.843976 0.194894
v -3.898078 0.023192 0.194893
v -3.892388 4.843976 0.176134
v -3.892388 0.023192 0.176133
v -3.883147 4.843976 0.158846
v -3.883147 0.023192 0.158845
v -3.870711 4.843976 0.143692
v -3.870711 0.023192 0.143691
v -3.855557 4.843976 0.131256
v -3.855557 0.023192 0.131255
v -3.838268 4.843976 0.122015
v -3.838268 0.023192 0.122014
v -3.819509 4.843976 0.116324
v -3.819509 0.023192 0.116323
vt 0.364725 0.883901
vt 0.364725 0.991099
vt 0.364457 0.991099
vt 0.364457 0.883901
vt 0.364199 0.991099
vt 0.364199 0.883901
vt 0.363961 0.991099
vt 0.363961 0.883901
vt 0.363753 0.991099
vt 0.363753 0.883901
vt 0.363582 0.991099
vt 0.363582 0.883901
vt 0.363455 0.991099
vt 0.363455 0.883901
vt 0.363377 0.991099
vt 0.363377 0.883901
vt 0.363351 0.991099
vt 0.363351 0.883901
vt 0.363377 0.991099
vt 0.363377 0.883901
vt 0.363455 0.991099
vt 0.363455 0.883901
vt 0.363582 0.991099
vt 0.363582 0.883901
vt 0.363753 0.991099
vt 0.363753 0.883901
vt 0.363961 0.991099
vt 0.363961 0.883901
vt 0.364199 0.991099
vt 0.364199 0.883901
vt 0.364457 0.991099
vt 0.364457 0.883901
vt 0.364725 0.991099
vt 0.364725 0.883901
vt 0.364993 0.991099
vt 0.364993 0.883901
vt 0.365251 0.991099
vt 0.365251 0.883901
vt 0.365488 0.991099
vt 0.365488 0.883901
vt 0.365697 0.991099
vt 0.365697 0.883901
vt 0.365868 0.991099
vt 0.365868 0.883901
vt 0.365995 0.991099
vt 0.365995 0.883901
vt 0.366073 0.991099
vt 0.366073 0.883901
vt 0.366099 0.991099
vt 0.366099 0.883901
vt 0.366073 0.991099
vt 0.366073 0.883901
vt 0.365995 0.991099
vt 0.365995 0.883901
vt 0.365868 0.991099
vt 0.365868 0.883901
vt 0.365697 0.991099
vt 0.365697 0.883901
vt 0.365488 0.991099
vt 0.365488 0.883901
vt 0.365251 0.991099
vt 0.365251 0.883901
vt 0.364993 0.991099
vt 0.364993 0.883901
vn 0.0980 0.0000 -0.9952
vn 0.2903 0.0000 -0.9569
vn 0.4714 0.0000 -0.8819
vn 0.6344 0.0000 -0.7730
vn 0.7730 0.0000 -0.6344
vn 0.8819 0.0000 -0.4714
vn 0.9569 0.0000 -0.2903
vn 0.9952 -0.0000 -0.0980
vn 0.9952 -0.0000 0.0980
vn 0.9569 -0.0000 0.2903
vn 0.8819 -0.0000 0.4714
vn 0.7730 -0.0000 0.6344
vn 0.6344 -0.0000 0.7730
vn 0.4714 -0.0000 0.8819
vn 0.2903 -0.0000 0.9569
vn 0.0980 -0.0000 0.9952
vn -0.0980 -0.0000 0.9952
vn -0.2903 -0.0000 0.9569
vn -0.4714 -0.0000 0.8819
vn -0.6344 -0.0000 0.7730
vn -0.7730 -0.0000 0.6344
vn -0.8819 -0.0000 0.4714
vn -0.9569 -0.0000 0.2903
vn -0.9952 -0.0000 0.0981
vn -0.9952 -0.0000 -0.0981
vn -0.9570 0.0000 -0.2902
vn -0.8819 0.0000 -0.4714
vn -0.7730 0.0000 -0.6344
vn -0.6344 0.0000 -0.7730
vn -0.4714 0.0000 -0.8819
vn 0.0000 1.0000 -0.0000
vn -0.2903 0.0000 -0.9569
vn -0.0980 0.0000 -0.9952
vn -0.0000 -1.0000 -0.0000
usemtl Material.003
s 1
f 33/33/23 34/34/23 35/35/23 36/36/23
f 36/36/24 35/35/24 37/37/24 38/38/24
f 38/38/25 37/37/25 39/39/25 40/40/25
f 40/40/26 39/39/26 41/41/26 42/42/26
f 42/42/27 41/41/27 43/43/27 44/44/27
f 44/44/28 43/43/28 45/45/28 46/46/28
f 46/46/29 45/45/29 47/47/29 48/48/29
f 48/48/30 47/47/30 49/49/30 50/50/30
f 50/50/31 49/49/31 51/51/31 52/52/31
f 52/52/32 51/51/32 53/53/32 54/54/32
f 54/54/33 53/53/33 55/55/33 56/56/33
f 56/56/34 55/55/34 57/57/34 58/58/34
f 58/58/35 57/57/35 59/59/35 60/60/35
f 60/60/36 59/59/36 61/61/36 62/62/36
f 62/62/37 61/61/37 63/63/37 64/64/37
f 64/64/38 63/63/38 65/65/38 66/66/38
f 66/66/39 65/65/39 67/67/39 68/68/39
f 68/68/40 67/67/40 69/69/40 70/70/40
f 70/70/41 69/69/41 71/71/41 72/72/41
f 72/72/42 71/71/42 73/73/42 74/74/42
f 74/74/43 73/73/43 75/75/43 76/76/43
f 76/76/44 75/75/44 77/77/44 78/78/44
f 78/78/45 77/77/45 79/79/45 80/80/45
f 80/80/46 79/79/46 81/81/46 82/82/46
f 82/82/47 81/81/47 83/83/47 84/84/47
f 84/84/48 83/83/48 85/85/48 86/86/48
f 86/86/49 85/85/49 87/87/49 88/88/49
f 88/88/50 87/87/50 89/89/50 90/90/50
f 90/90/51 89/89/51 91/91/51 92/92/51
f 92/92/52 91/91/52 93/93/52 94/94/52
f 35/35/53 34/34/53 95/95/53 93/93/53 91/91/53 89/89/53 87/87/53 85/85/53 83/83/53 81/81/53 79/79/53 77/77/53 75/75/53 73/73/53 71/71/53 69/69/53 67/67/53 65/65/53 63/63/53 61/61/53 59/59/53 57/57/53 55/55/53 53/53/53 51/51/53 49/49/53 47/47/53 45/45/53 43/43/53 41/41/53 39/39/53 37/37/53
f 94/94/54 93/93/54 95/95/54 96/96/54
f 96/96/55 95/95/55 34/34/55 33/33/55
f 33/33/56 36/36/56 38/38/56 40/40/56 42/42/56 44/44/56 46/46/56 48/48/56 50/50/56 52/52/56 54/54/56 56/56/56 58/58/56 60/60/56 62/62/56 64/64/56 66/66/56 68/68/56 70/70/56 72/72/56 74/74/56 76/76/56 78/78/56 80/80/56 82/82/56 84/84/56 86/86/56 88/88/56 90/90/56 92/92/56 94/94/56 96/96/56
o Cylinder.001
v 3.800000 0.023192 0.114402
v 3.800000 4.843976 0.114403
v 3.819509 4.843976 0.116324
v 3.819509 0.023192 0.116323
v 3.838269 4.843976 0.122015
v 3.838269 0.023192 0.122014
v 3.855557 4.843976 0.131256
v 3.855557 0.023192 0.131255
v 3.870711 4.843976 0.143692
v 3.870711 0.023192 0.143691
v 3.883147 4.843976 0.158846
v 3.883147 0.023192 0.158845
v 3.892388 4.843976 0.176134
v 3.892388 0.023192 0.176133
v 3.898079 4.843976 0.194894
v 3.898079 0.023192 0.194893
v 3.900000 4.843976 0.214403
v 3.900000 0.023192 0.214402
v 3.898079 4.843976 0.233912
v 3.898079 0.023192 0.233911
v 3.892388 4.843976 0.252671
v 3.892388 0.023192 0.252670
v 3.883147 4.843976 0.269960
v 3.883147 0.023192 0.269959
v 3.870711 4.843976 0.285113
v 3.870711 0.023192 0.285112
v 3.855557 4.843976 0.297550
v 3.855557 0.023192 0.297549
v 3.838269 4.843976 0.306791
v 3.838269 0.023192 0.306790
v 3.819509 4.843976 0.312481
v 3.819509 0.023192 0.312480
v 3.800000 4.843976 0.314403
v 3.800000 0.023192 0.314402
v 3.780491 4.843976 0.312481
v 3.780491 0.023192 0.312480
v 3.761732 4.843976 0.306791
v 3.761732 0.023192 0.306790
v 3.744443 4.843976 0.297550
v 3.744443 0.023192 0.297549
v 3.729290 4.843976 0.285113
v 3.729290 0.023192 0.285112
v 3.716853 4.843976 0.269960
v 3.716853 0.023192 0.269959
v 3.707612 4.843976 0.252671
v 3.707612 0.023192 0.252670
v 3.701922 4.843976 0.233912
v 3.701922 0.023192 0.233911
v 3.700000 4.843976 0.214403
v 3.700000 0.023192 0.214402
v 3.701922 4.843976 0.194894
v 3.701922 0.023192 0.194893
v 3.707612 4.843976 0.176134
v 3.707612 0.023192 0.176133
v 3.716853 4.843976 0.158846
v 3.716853 0.023192 0.158845
v 3.729290 4.843976 0.143692
v 3.729290 0.023192 0.143691
v 3.744443 4.843976 0.131256
v 3.744443 0.023192 0.131255
v 3.761732 4.843976 0.122015
v 3.761732 0.023192 0.122014
v 3.780491 4.843976 0.116324
v 3.780491 0.023192 0.116323
vt 0.260275 0.883901
vt 0.260275 0.991099
vt 0.260007 0.991099
vt 0.260007 0.883901
vt 0.259749 0.991099
vt 0.259749 0.883901
vt 0.259511 0.991099
vt 0.259511 0.883901
vt 0.259303 0.991099
vt 0.259303 0.883901
vt 0.259132 0.991099
vt 0.259132 0.883901
vt 0.259005 0.991099
vt 0.259005 0.883901
vt 0.258927 0.991099
vt 0.258927 0.883901
vt 0.258901 0.991099
vt 0.258901 0.883901
vt 0.258927 0.991099
vt 0.258927 0.883901
vt 0.259005 0.991099
vt 0.259005 0.883901
vt 0.259132 0.991099
vt 0.259132 0.883901
vt 0.259303 0.991099
vt 0.259303 0.883901
vt 0.259511 0.991099
vt 0.259511 0.883901
vt 0.259749 0.991099
vt 0.259749 0.883901
vt 0.260007 0.991099
vt 0.260007 0.883901
vt 0.260275 0.991099
vt 0.260275 0.883901
vt 0.260543 0.991099
vt 0.260543 0.883901
vt 0.260801 0.991099
vt 0.260801 0.883901
vt 0.261039 0.991099
vt 0.261039 0.883901
vt 0.261247 0.991099
vt 0.261247 0.883901
vt 0.261418 0.991099
vt 0.261418 0.883901
vt 0.261545 0.991099
vt 0.261545 0.883901
vt 0.261623 0.991099
vt 0.261623 0.883901
vt 0.261649 0.991099
vt 0.261649 0.883901
vt 0.261623 0.991099
vt 0.261623 0.883901
vt 0.261545 0.991099
vt 0.261545 0.883901
vt 0.261418 0.991099
vt 0.261418 0.883901
vt 0.261247 0.991099
vt 0.261247 0.883901
vt 0.261039 0.991099
vt 0.261039 0.883901
vt 0.260801 0.991099
vt 0.260801 0.883901
vt 0.260543 0.991099
vt 0.260543 0.883901
vn 0.0980 0.0000 -0.9952
vn 0.2903 0.0000 -0.9569
vn 0.4714 0.0000 -0.8819
vn 0.6344 0.0000 -0.7730
vn 0.7730 0.0000 -0.6344
vn 0.8819 0.0000 -0.4714
vn 0.9569 0.0000 -0.2903
vn 0.9952 0.0000 -0.0980
vn 0.9952 0.0000 0.0980
vn 0.9569 -0.0000 0.2903
vn 0.8819 -0.0000 0.4714
vn 0.7730 -0.0000 0.6344
vn 0.6344 -0.0000 0.7730
vn 0.4714 -0.0000 0.8819
vn 0.2902 -0.0000 0.9570
vn 0.0980 -0.0000 0.9952
vn -0.0980 -0.0000 0.9952
vn -0.2903 -0.0000 0.9569
vn -0.4714 -0.0000 0.8819
vn -0.6344 -0.0000 0.7730
vn -0.7730 -0.0000 0.6344
vn -0.8819 -0.0000 0.4714
vn -0.9569 -0.0000 0.2903
vn -0.9952 0.0000 0.0980
vn -0.9952 0.0000 -0.0980
vn -0.9570 0.0000 -0.2903
vn -0.8819 0.0000 -0.4714
vn -0.7730 0.0000 -0.6344
vn -0.6344 0.0000 -0.7730
vn -0.4714 0.0000 -0.8819
vn 0.0000 1.0000 0.0000
vn -0.2903 0.0000 -0.9569
vn -0.0980 0.0000 -0.9952
vn -0.0000 -1.0000 -0.0000
usemtl Material.003
s 1
f 97/97/57 98/98/57 99/99/57 100/100/57
f 100/100/58 99/99/58 101/101/58 102/102/58
f 102/102/59 101/101/59 103/103/59 104/104/59
f 104/104/60 103/103/60 105/105/60 106/106/60
f 106/106/61 105/105/61 107/107/61 108/108/61
f 108/108/62 107/107/62 109/109/62 110/110/62
f 110/110/63 109/109/63 111/111/63 112/112/63
f 112/112/64 111/111/64 113/113/64 114/114/64
f 114/114/65 113/113/65 115/115/65 116/116/65
f 116/116/66 115/115/66 117/117/66 118/118/66
f 118/118/67 117/117/67 119/119/67 120/120/67
f 120/120/68 119/119/68 121/121/68 122/122/68
f 122/122/69 121/121/69 123/123/69 124/124/69
f 124/124/70 123/123/70 125/125/70 126/126/70
f 126/126/71 125/125/71 127/127/71 128/128/71
f 128/128/72 127/127/72 129/129/72 130/130/72
f 130/130/73 129/129/73 131/131/73 132/132/73
f 132/132/74 131/131/74 133/133/74 134/134/74
f 134/134/75 133/133/75 135/135/75 136/136/75
f 136/136/76 135/135/76 137/137/76 138/138/76
f 138/138/77 137/137/77 139/139/77 140/140/77
f 140/140/78 139/139/78 141/141/78 142/142/78
f 142/142/79 141/141/79 143/143/79 144/144/79
f 144/144/80 143/143/80 145/145/80 146/146/80
f 146/146/81 145/145/81 147/147/81 148/148/81
f 148/148/82 147/147/82 149/149/82 150/150/82
f 150/150/83 149/149/83 151/151/83 152/152/83
f 152/152/84 151/151/84 153/153/84 154/154/84
f 154/154/85 153/153/85 155/155/85 156/156/85
f 156/156/86 155/155/86 157/157/86 158/158/86
f 99/99/87 98/98/87 159/159/87 157/157/87 155/155/87 153/153/87 151/151/87 149/149/87 147/147/87 145/145/87 143/143/87 141/141/87 139/139/87 137/137/87 135/135/87 133/133/87 131/131/87 129/129/87 127/127/87 125/125/87 123/123/87 121/121/87 119/119/87 117/117/87 115/115/87 113/113/87 111/111/87 109/109/87 107/107/87 105/105/87 103/103/87 101/101/87
f 158/158/88 157/157/88 159/159/88 160/160/88
f 160/160/89 159/159/89 98/98/89 97/97/89
f 97/97/90 100/100/90 102/102/90 104/104/90 106/106/90 108/108/90 110/110/90 112/112/90 114/114/90 116/116/90 118/118/90 120/120/90 122/122/90 124/124/90 126/126/90 128/128/90 130/130/90 132/132/90 134/134/90 136/136/90 138/138/90 140/140/90 142/142/90 144/144/90 146/146/90 148/148/90 150/150/90 152/152/90 154/154/90 156/156/90 158/158/90 160/160/90
o Cube.002_Cube.003
v -4.000001 0.026397 7.119412
v -4.000001 0.026397 7.041304
v 4.000001 0.026397 7.041304
v 4.000001 0.026397 7.119412
v -4.000001 3.996383 7.041305
v 4.000001 3.996383 7.041305
v 4.000001 3.996383 7.119412
v -4.000001 3.996383 7.119412
vt 0.252617 0.877617
vt 0.252617 0.877617
vt 0.372383 0.877617
vt 0.372383 0.877617
vt 0.252617 0.997383
vt 0.372383 0.997383
vt 0.372383 0.997383
vt 0.252617 0.997383
vn 0.0000 -1.0000 -0.0000
vn 0.0000 0.0000 -1.0000
vn 1.0000 0.0000 0.0000
vn 0.0000 1.0000 0.0000
vn -1.0000 0.0000 0.0000
vn 0.0000 -0.0000 1.0000
usemtl Material.003
s 1
f 161/161/91 162/162/91 163/163/91 164/164/91
f 165/165/92 166/166/92 163/163/92 162/162/92
f 166/166/93 167/167/93 164/164/93 163/163/93
f 167/167/94 166/166/94 165/165/94 168/168/94
f 168/168/95 165/165/95 162/162/95 161/161/95
f 167/167/96 168/168/96 161/161/96 164/164/96
