# Blender v2.83.1 OBJ File: ''
# www.blender.org
mtllib chiselplowunit.mtl
o chiselplow
v -0.043636 0.268616 -0.064336
v -0.059873 0.268616 -0.076133
v -0.059873 -0.049934 -0.076133
v -0.043636 -0.049934 -0.064336
v -0.053671 0.268616 -0.095221
v -0.053671 -0.049934 -0.095221
v -0.033601 0.268616 -0.095221
v -0.033601 -0.049934 -0.095221
v -0.027399 -0.049934 -0.076133
v -0.027399 0.268616 -0.076133
v -0.073045 -0.045516 -0.037170
v -0.073045 -0.015270 -0.037170
v -0.073045 -0.015270 -0.121034
v -0.073045 -0.045516 -0.121034
v 0.072527 -0.015270 -0.121034
v 0.072527 -0.045516 -0.121034
v 0.072527 -0.015270 -0.037170
v 0.072527 -0.045516 -0.037170
v 0.021148 -0.045516 -0.100903
v 0.021148 -0.045516 -0.057301
v 0.021148 -0.080881 -0.057301
v 0.021148 -0.080881 -0.100903
v -0.021667 -0.045516 -0.100903
v -0.021667 -0.045516 -0.057301
v -0.021667 -0.080881 -0.100903
v -0.021667 -0.080881 -0.057301
v 0.021148 -0.109503 -0.224500
v -0.021667 -0.109503 -0.224500
v -0.021667 -0.131799 -0.213173
v -0.021667 -0.250423 -0.326433
v -0.021667 -0.250389 -0.302139
v 0.021148 -0.131799 -0.213173
v 0.021148 -0.250423 -0.326433
v 0.021148 -0.250389 -0.302139
v 0.021148 -0.403518 -0.303643
v 0.021148 -0.415810 -0.324598
v 0.021148 -0.540020 -0.229979
v 0.021148 -0.561142 -0.241981
v -0.021667 -0.415810 -0.324598
v -0.021667 -0.403518 -0.303643
v -0.021667 -0.540020 -0.229979
v -0.021667 -0.561142 -0.241981
v -0.021667 -0.710600 -0.102836
v -0.021667 -0.710525 -0.078542
v 0.021148 -0.710600 -0.102836
v 0.021148 -0.710525 -0.078542
v 0.130601 0.172364 0.010359
v 0.130601 0.128526 0.010359
v 0.130601 0.128526 -0.019428
v 0.130601 0.172364 -0.019428
v 0.130601 0.187763 0.087979
v 0.143724 0.187763 0.087979
v 0.143724 0.187763 0.010359
v 0.130601 0.187763 0.010359
v 0.052747 0.187763 0.010359
v -0.052014 0.187763 0.010359
v -0.129867 0.187763 0.010359
v -0.145538 0.187763 0.010359
v -0.145538 0.187763 0.087979
v -0.129867 0.187763 0.087979
v -0.052014 0.187763 0.087979
v 0.052747 0.187763 0.087979
v -0.052014 -0.097761 0.010358
v -0.129867 -0.097761 0.010358
v -0.129867 -0.097761 -0.018957
v -0.052014 -0.097761 -0.018957
v -0.052014 -0.053967 0.168331
v -0.129867 -0.053967 0.168331
v -0.129867 0.128526 0.168309
v -0.052014 0.128526 0.168309
v 0.052747 -0.110444 0.010358
v 0.130601 -0.110444 0.010358
v 0.143724 -0.110444 0.010358
v 0.143724 -0.110444 0.087978
v 0.130601 -0.110444 0.087978
v 0.052747 -0.110444 0.087978
v -0.052014 -0.110444 0.087978
v -0.129867 -0.110444 0.087978
v -0.145538 -0.110444 0.087978
v -0.145538 -0.110444 0.010358
v -0.129867 -0.110444 0.010358
v -0.052014 -0.110444 0.010358
v 0.052747 -0.053967 0.010358
v 0.130601 -0.053967 0.010358
v 0.130601 -0.053967 -0.018957
v 0.052747 -0.053967 -0.018957
v -0.052014 0.172364 0.010359
v -0.052014 0.128526 0.010359
v -0.052014 0.128526 -0.019428
v -0.052014 0.172364 -0.019428
v -0.129867 0.172364 0.168309
v -0.129867 0.172364 0.216849
v -0.052014 0.172364 0.216849
v -0.052014 0.172364 0.168309
v -0.052014 0.172364 0.087979
v -0.129867 0.172364 0.087979
v 0.052747 0.172364 0.087979
v 0.130601 0.172364 0.087979
v 0.130601 0.128526 0.087979
v 0.143724 0.128526 0.087979
v 0.143724 0.172364 0.087979
v -0.145538 0.172364 0.087979
v -0.145538 0.128526 0.087979
v -0.129867 0.128526 0.087979
v -0.052014 0.128526 0.087979
v 0.052747 0.128526 0.087979
v 0.052747 0.128526 -0.019428
v 0.052747 0.172364 -0.019428
v -0.129867 0.128526 -0.019428
v -0.129867 0.172364 -0.019428
v -0.129867 0.128526 0.010359
v 0.052747 0.128526 0.010359
v 0.052747 0.172364 0.010359
v -0.129867 0.172364 0.010359
v -0.145538 0.128526 0.010359
v -0.145538 0.172364 0.010359
v 0.143724 0.172364 0.010359
v 0.143724 0.128526 0.010359
v -0.145538 -0.053967 0.010358
v -0.145538 -0.097761 0.010358
v -0.145538 -0.097761 0.087978
v -0.145538 -0.053967 0.087978
v 0.130601 0.128526 0.216849
v 0.130601 0.172364 0.216849
v 0.052747 0.172364 0.216849
v 0.052747 0.128526 0.216849
v 0.052747 -0.053967 0.216778
v 0.052747 -0.097761 0.216778
v 0.130601 -0.097761 0.216778
v 0.130601 -0.053967 0.216778
v -0.129867 -0.053967 0.216778
v -0.129867 0.128526 0.216849
v -0.129867 -0.053967 0.087978
v -0.129867 -0.097761 0.087978
v -0.129867 -0.097761 0.168331
v -0.129867 -0.097761 0.216778
v 0.143724 -0.097761 0.087978
v 0.143724 -0.053967 0.087978
v 0.130601 -0.053967 0.087978
v 0.130601 -0.097761 0.087978
v 0.052747 -0.097761 0.087978
v 0.052747 -0.053967 0.087978
v -0.052014 -0.053967 0.087978
v -0.052014 -0.097761 0.087978
v 0.130601 0.172364 0.168318
v 0.130601 -0.097761 0.168346
v 0.130601 -0.053967 0.168346
v 0.130601 0.128526 0.168318
v 0.052747 0.172364 0.168318
v -0.052014 -0.053967 0.216778
v -0.052014 0.128526 0.216849
v -0.052014 -0.097761 0.216778
v 0.052747 0.128526 0.168318
v 0.052747 -0.053967 0.168346
v 0.052747 -0.097761 0.168346
v -0.052014 -0.097761 0.168331
v 0.052747 -0.097761 -0.018957
v 0.130601 -0.097761 -0.018957
v -0.129867 -0.053967 -0.018957
v -0.052014 -0.053967 -0.018957
v 0.052747 -0.097761 0.010358
v 0.130601 -0.097761 0.010358
v -0.129867 -0.053967 0.010358
v -0.052014 -0.053967 0.010358
v 0.143724 -0.053967 0.010358
v 0.143724 -0.097761 0.010358
v -0.089944 0.020635 0.010359
v 0.090677 0.020635 0.010359
v 0.090677 0.020635 -0.140325
v -0.089944 0.020635 -0.140325
v 0.090677 -0.015155 -0.140325
v -0.089944 -0.015155 -0.140325
v 0.090677 -0.015155 0.010358
v -0.089944 -0.015155 0.010358
v 0.016987 0.016448 -0.054334
v 0.016987 0.258516 -0.054334
v 0.016987 0.258516 -0.106413
v 0.016987 0.016448 -0.106413
v 0.069066 0.258516 -0.106413
v 0.069066 0.016448 -0.106413
v 0.069066 0.258516 -0.054334
v 0.069066 0.016448 -0.054334
v -0.069350 0.016448 -0.054334
v -0.069350 0.258516 -0.054334
v -0.069350 0.258516 -0.106413
v -0.069350 0.016448 -0.106413
v -0.017270 0.258516 -0.106413
v -0.017270 0.016448 -0.106413
v -0.017270 0.258516 -0.054334
v -0.017270 0.016448 -0.054334
v 0.043164 0.268616 -0.064336
v 0.026927 0.268616 -0.076133
v 0.026927 -0.049934 -0.076133
v 0.043164 -0.049934 -0.064336
v 0.033129 0.268616 -0.095221
v 0.033129 -0.049934 -0.095221
v 0.053199 0.268616 -0.095221
v 0.053199 -0.049934 -0.095221
v 0.059402 -0.049934 -0.076133
v 0.059402 0.268616 -0.076133
vt 0.161884 0.964160
vt 0.160887 0.964174
vt 0.160887 0.944838
vt 0.161884 0.944824
vt 0.165145 0.964717
vt 0.166329 0.964717
vt 0.166329 0.984057
vt 0.165145 0.984057
vt 0.164115 0.964160
vt 0.162882 0.964160
vt 0.162882 0.944824
vt 0.164115 0.944824
vt 0.159162 0.997051
vt 0.159162 0.998269
vt 0.157989 0.998646
vt 0.157264 0.997661
vt 0.157989 0.996675
vt 0.165298 0.964164
vt 0.164115 0.964164
vt 0.164115 0.944824
vt 0.165298 0.944824
vt 0.162882 0.964174
vt 0.162882 0.944838
vt 0.137908 0.997100
vt 0.137908 0.998319
vt 0.136735 0.998695
vt 0.136011 0.997709
vt 0.136735 0.996724
vt 0.147393 0.992088
vt 0.149251 0.992088
vt 0.149251 0.997177
vt 0.147393 0.997177
vt 0.166828 0.937349
vt 0.164970 0.937349
vt 0.164970 0.928511
vt 0.166828 0.928511
vt 0.155066 0.992080
vt 0.156924 0.992080
vt 0.156924 0.997169
vt 0.155066 0.997169
vt 0.166785 0.992905
vt 0.164928 0.992905
vt 0.164928 0.984067
vt 0.166785 0.984067
vt 0.125347 0.928600
vt 0.128024 0.928511
vt 0.128097 0.930657
vt 0.125421 0.930746
vt 0.144700 0.992088
vt 0.144700 0.983250
vt 0.149851 0.983250
vt 0.149851 0.992088
vt 0.151087 0.987619
vt 0.153766 0.987619
vt 0.155002 0.990739
vt 0.149851 0.990739
vt 0.151087 0.985020
vt 0.149851 0.981901
vt 0.153766 0.985020
vt 0.155002 0.981901
vt 0.159895 0.984926
vt 0.157264 0.984926
vt 0.157264 0.982279
vt 0.159895 0.982279
vt 0.111856 0.968960
vt 0.109180 0.968871
vt 0.109253 0.966725
vt 0.111930 0.966814
vt 0.144090 0.982012
vt 0.144090 0.979412
vt 0.146262 0.979412
vt 0.146262 0.982012
vt 0.160098 0.984067
vt 0.162729 0.984067
vt 0.162729 0.991661
vt 0.160098 0.991661
vt 0.102468 0.963406
vt 0.101727 0.964736
vt 0.095762 0.955976
vt 0.097253 0.956028
vt 0.118635 0.934065
vt 0.117894 0.932736
vt 0.159895 0.991799
vt 0.157264 0.991799
vt 0.111930 0.941495
vt 0.113421 0.941443
vt 0.113645 0.950738
vt 0.112385 0.951526
vt 0.149851 0.946613
vt 0.152481 0.946613
vt 0.152481 0.953706
vt 0.149851 0.953706
vt 0.149851 0.983250
vt 0.147220 0.983250
vt 0.147220 0.974823
vt 0.149851 0.974823
vt 0.118449 0.958870
vt 0.117756 0.960176
vt 0.147220 0.964782
vt 0.149851 0.964782
vt 0.096217 0.945945
vt 0.097478 0.946734
vt 0.152481 0.962999
vt 0.149851 0.962999
vt 0.102282 0.938602
vt 0.101589 0.937295
vt 0.110439 0.928511
vt 0.111930 0.928565
vt 0.147220 0.955857
vt 0.149851 0.955857
vt 0.152481 0.971372
vt 0.149851 0.971372
vt 0.134493 0.983174
vt 0.134493 0.980574
vt 0.135986 0.980574
vt 0.135986 0.983174
vt 0.152481 0.981901
vt 0.149851 0.981901
vt 0.128097 0.968906
vt 0.126606 0.968960
vt 0.147220 0.946613
vt 0.149851 0.946613
vt 0.133096 0.997932
vt 0.133096 0.995271
vt 0.134925 0.995271
vt 0.134925 0.997932
vt 0.054871 0.929308
vt 0.054871 0.928511
vt 0.059638 0.928511
vt 0.059638 0.929308
vt 0.059638 0.934035
vt 0.059638 0.940395
vt 0.059638 0.945121
vt 0.059638 0.946073
vt 0.054871 0.946073
vt 0.054871 0.945121
vt 0.054871 0.940395
vt 0.054871 0.934035
vt 0.123988 0.999613
vt 0.123988 0.994887
vt 0.125789 0.994887
vt 0.125789 0.999613
vt 0.103676 0.979926
vt 0.108460 0.979926
vt 0.108460 0.991003
vt 0.103676 0.991003
vt 0.054871 0.940549
vt 0.054871 0.945276
vt 0.054871 0.946073
vt 0.050103 0.946073
vt 0.050103 0.945276
vt 0.050103 0.940549
vt 0.050103 0.934189
vt 0.050103 0.929463
vt 0.050103 0.928511
vt 0.054871 0.928511
vt 0.054871 0.929463
vt 0.054871 0.934189
vt 0.127589 0.994887
vt 0.127589 0.999613
vt 0.125789 0.999613
vt 0.125789 0.994887
vt 0.139306 0.998029
vt 0.139306 0.995368
vt 0.141136 0.995368
vt 0.141136 0.998029
vt 0.122187 0.990011
vt 0.122187 0.987065
vt 0.126971 0.987065
vt 0.126971 0.990011
vt 0.126971 0.994887
vt 0.122187 0.994887
vt 0.037921 0.929446
vt 0.033137 0.929446
vt 0.033137 0.932107
vt 0.032331 0.932107
vt 0.032331 0.929446
vt 0.032331 0.928511
vt 0.033137 0.928511
vt 0.037921 0.928511
vt 0.044357 0.928511
vt 0.049140 0.928511
vt 0.050103 0.928511
vt 0.050103 0.929446
vt 0.050103 0.932107
vt 0.049140 0.932107
vt 0.049140 0.929446
vt 0.044357 0.929446
vt 0.044357 0.932107
vt 0.037921 0.932107
vt 0.147393 0.996815
vt 0.144700 0.996815
vt 0.144700 0.992088
vt 0.147393 0.992088
vt 0.098455 0.997908
vt 0.095762 0.997908
vt 0.095762 0.993182
vt 0.098455 0.993182
vt 0.165419 0.997939
vt 0.165419 0.993212
vt 0.167248 0.993212
vt 0.167248 0.997939
vt 0.129466 0.997932
vt 0.129466 0.995271
vt 0.131295 0.995271
vt 0.131295 0.997932
vt 0.166800 0.939421
vt 0.166800 0.944148
vt 0.164970 0.944148
vt 0.164970 0.939421
vt 0.127637 0.997932
vt 0.127637 0.995271
vt 0.129466 0.995271
vt 0.129466 0.997932
vt 0.116228 0.999349
vt 0.116228 0.994622
vt 0.118057 0.994622
vt 0.118057 0.999349
vt 0.101847 0.999231
vt 0.101847 0.994504
vt 0.103676 0.994504
vt 0.103676 0.999231
vt 0.064175 0.947564
vt 0.061482 0.947564
vt 0.061482 0.946613
vt 0.064175 0.946613
vt 0.065121 0.946613
vt 0.065121 0.947564
vt 0.065121 0.952291
vt 0.065121 0.958651
vt 0.065121 0.963378
vt 0.065121 0.964174
vt 0.064175 0.964174
vt 0.061482 0.964174
vt 0.061482 0.963378
vt 0.064175 0.963378
vt 0.064175 0.958651
vt 0.061482 0.958651
vt 0.061482 0.952291
vt 0.064175 0.952291
vt 0.031189 0.983468
vt 0.031189 0.986130
vt 0.031189 0.987065
vt 0.026422 0.987065
vt 0.026422 0.986130
vt 0.026422 0.983468
vt 0.026422 0.972389
vt 0.026422 0.969730
vt 0.026422 0.968960
vt 0.031189 0.968960
vt 0.031189 0.969730
vt 0.031189 0.972389
vt 0.157264 0.978453
vt 0.157264 0.981114
vt 0.152481 0.981114
vt 0.152481 0.978453
vt 0.152481 0.967376
vt 0.152481 0.964717
vt 0.157264 0.964717
vt 0.157264 0.967376
vt 0.139311 0.960354
vt 0.139306 0.949274
vt 0.139306 0.946613
vt 0.142287 0.946613
vt 0.147220 0.946613
vt 0.147220 0.949274
vt 0.142287 0.949274
vt 0.142286 0.960354
vt 0.147220 0.960354
vt 0.147220 0.963012
vt 0.142286 0.963012
vt 0.139311 0.963012
vt 0.050103 0.945843
vt 0.050103 0.946613
vt 0.049140 0.946613
vt 0.044357 0.946613
vt 0.037921 0.946613
vt 0.033137 0.946613
vt 0.032331 0.946613
vt 0.032331 0.945843
vt 0.032331 0.943184
vt 0.033137 0.943184
vt 0.033137 0.945843
vt 0.037921 0.945843
vt 0.037921 0.943184
vt 0.044357 0.943184
vt 0.044357 0.945843
vt 0.049140 0.945843
vt 0.049140 0.943184
vt 0.050103 0.943184
vt 0.142287 0.979412
vt 0.139306 0.979412
vt 0.139306 0.976751
vt 0.139311 0.965671
vt 0.139311 0.963012
vt 0.142285 0.963012
vt 0.147220 0.963012
vt 0.147220 0.965671
vt 0.142285 0.965671
vt 0.142287 0.976751
vt 0.147220 0.976751
vt 0.147220 0.979412
vt 0.100546 0.990236
vt 0.100546 0.993182
vt 0.095762 0.993182
vt 0.095762 0.990236
vt 0.095762 0.985360
vt 0.100546 0.985360
vt 0.160187 0.931169
vt 0.160187 0.942247
vt 0.160187 0.944908
vt 0.155404 0.944908
vt 0.155404 0.942247
vt 0.155404 0.931169
vt 0.155404 0.928511
vt 0.160187 0.928511
vt 0.108460 0.995880
vt 0.103676 0.995880
vt 0.103676 0.991003
vt 0.108460 0.991003
vt 0.128097 0.966836
vt 0.128097 0.964174
vt 0.131077 0.964174
vt 0.136011 0.964174
vt 0.136011 0.966836
vt 0.131077 0.966836
vt 0.131075 0.977915
vt 0.136011 0.977915
vt 0.136011 0.980574
vt 0.131075 0.980574
vt 0.128101 0.980574
vt 0.128101 0.977915
vt 0.098742 0.971619
vt 0.098743 0.982698
vt 0.103676 0.982698
vt 0.103676 0.985360
vt 0.098743 0.985360
vt 0.095762 0.985360
vt 0.095762 0.982698
vt 0.095767 0.971619
vt 0.095767 0.968960
vt 0.098742 0.968960
vt 0.103676 0.968960
vt 0.103676 0.971619
vt 0.144090 0.995368
vt 0.139306 0.995368
vt 0.139306 0.990490
vt 0.144090 0.990490
vt 0.160187 0.931451
vt 0.160187 0.928511
vt 0.164970 0.928511
vt 0.164970 0.931451
vt 0.164970 0.936330
vt 0.160187 0.936330
vt 0.154634 0.995616
vt 0.149851 0.995616
vt 0.149851 0.990739
vt 0.154634 0.990739
vt 0.162048 0.996675
vt 0.157264 0.996675
vt 0.157264 0.991799
vt 0.162048 0.991799
vt 0.160187 0.939270
vt 0.160187 0.936330
vt 0.164970 0.936330
vt 0.164970 0.939270
vt 0.164970 0.944148
vt 0.160187 0.944148
vt 0.101145 0.997908
vt 0.098455 0.997908
vt 0.098455 0.993182
vt 0.101145 0.993182
vt 0.165419 0.997939
vt 0.162729 0.997939
vt 0.162729 0.993212
vt 0.165419 0.993212
vt 0.149851 0.998275
vt 0.149851 0.995616
vt 0.151651 0.995616
vt 0.151651 0.998275
vt 0.142289 0.998026
vt 0.142289 0.995368
vt 0.144090 0.995368
vt 0.144090 0.998026
vt 0.133096 0.995271
vt 0.133096 0.999997
vt 0.131295 0.999997
vt 0.131295 0.995271
vt 0.153451 0.995616
vt 0.153451 0.998275
vt 0.151651 0.998275
vt 0.151651 0.995616
vt 0.106659 0.998539
vt 0.106659 0.995880
vt 0.108460 0.995880
vt 0.108460 0.998539
vt 0.123988 0.994887
vt 0.123988 0.999613
vt 0.122187 0.999613
vt 0.122187 0.994887
vt 0.144090 0.990490
vt 0.139306 0.990490
vt 0.139306 0.979412
vt 0.144090 0.979412
vt 0.062278 0.981482
vt 0.064968 0.981482
vt 0.064968 0.982279
vt 0.062278 0.982279
vt 0.061499 0.982279
vt 0.061499 0.981482
vt 0.061499 0.976756
vt 0.061499 0.970395
vt 0.061499 0.965669
vt 0.061499 0.964717
vt 0.062278 0.964717
vt 0.064968 0.964717
vt 0.064968 0.965669
vt 0.062278 0.965669
vt 0.062278 0.970395
vt 0.064968 0.970395
vt 0.064968 0.976756
vt 0.062278 0.976756
vt 0.032331 0.964174
vt 0.032331 0.946613
vt 0.043541 0.946613
vt 0.043541 0.964174
vt 0.017167 0.979926
vt 0.017167 0.968960
vt 0.026422 0.968960
vt 0.026422 0.979926
vt 0.061499 0.981114
vt 0.061499 0.992080
vt 0.059300 0.992080
vt 0.059300 0.981114
vt 0.007911 0.979926
vt 0.007911 0.968960
vt 0.017167 0.968960
vt 0.017167 0.979926
vt 0.069162 0.993212
vt 0.066963 0.993212
vt 0.066963 0.984067
vt 0.069162 0.984067
vt 0.005712 0.985360
vt 0.007911 0.985360
vt 0.007911 0.994504
vt 0.005712 0.994504
vt 0.201938 0.994622
vt 0.201938 0.979926
vt 0.205136 0.979926
vt 0.205136 0.994622
vt 0.197808 0.979926
vt 0.197808 0.994619
vt 0.194608 0.994619
vt 0.194608 0.979926
vt 0.214244 0.995271
vt 0.214244 0.980574
vt 0.217442 0.980574
vt 0.217442 0.995271
vt 0.218960 0.993562
vt 0.218960 0.978868
vt 0.222159 0.978868
vt 0.222159 0.993562
vt 0.194608 0.997781
vt 0.191408 0.997781
vt 0.191408 0.994619
vt 0.194608 0.994619
vt 0.204205 0.994622
vt 0.204205 0.997784
vt 0.201006 0.997784
vt 0.201006 0.994622
vt 0.211046 0.995271
vt 0.211046 0.980574
vt 0.214244 0.980574
vt 0.214244 0.995271
vt 0.194608 0.979926
vt 0.194608 0.994619
vt 0.191408 0.994619
vt 0.191408 0.979926
vt 0.201006 0.979926
vt 0.201006 0.994622
vt 0.197808 0.994622
vt 0.197808 0.979926
vt 0.218960 0.978868
vt 0.218960 0.964174
vt 0.222159 0.964174
vt 0.222159 0.978868
vt 0.218960 0.996724
vt 0.218960 0.993562
vt 0.222159 0.993562
vt 0.222159 0.996724
vt 0.197807 0.994619
vt 0.197807 0.997781
vt 0.194608 0.997781
vt 0.194608 0.994619
vt 0.161731 0.964731
vt 0.162729 0.964717
vt 0.162729 0.984054
vt 0.161731 0.984067
vt 0.165298 0.944824
vt 0.166482 0.944824
vt 0.166482 0.964164
vt 0.165298 0.964164
vt 0.163962 0.984053
vt 0.162729 0.984053
vt 0.162729 0.964717
vt 0.163962 0.964717
vt 0.105487 0.997851
vt 0.104762 0.996866
vt 0.105487 0.995880
vt 0.106659 0.996256
vt 0.106659 0.997475
vt 0.165145 0.984057
vt 0.163962 0.984057
vt 0.163962 0.964717
vt 0.165145 0.964717
vt 0.160734 0.964717
vt 0.160734 0.984054
vt 0.162048 0.997052
vt 0.162048 0.998270
vt 0.160875 0.998646
vt 0.160150 0.997660
vt 0.160875 0.996675
vt 0.061482 0.961121
vt 0.061482 0.963782
vt 0.061482 0.964717
vt 0.056716 0.964717
vt 0.056716 0.963782
vt 0.056716 0.961121
vt 0.056716 0.950041
vt 0.056716 0.947383
vt 0.056716 0.946613
vt 0.061482 0.946613
vt 0.061482 0.947383
vt 0.061482 0.950041
vn -0.5878 -0.0000 0.8090
vn -0.9511 0.0000 -0.3090
vn 0.0000 0.0000 -1.0000
vn 0.0000 -1.0000 -0.0000
vn 0.9511 0.0000 -0.3090
vn 0.5878 -0.0000 0.8090
vn 0.0000 1.0000 0.0000
vn -1.0000 0.0000 0.0000
vn 1.0000 0.0000 0.0000
vn 0.0000 -0.0000 1.0000
vn 0.0000 0.8880 -0.4597
vn 0.0000 -0.9107 0.4130
vn 0.0000 -0.6001 0.7999
vn 0.0000 0.5861 -0.8102
vn 0.0000 -0.0111 -0.9999
vn 0.0000 -0.0098 1.0000
vn 0.0000 -0.4942 -0.8693
vn 0.0000 0.4749 0.8800
vn 0.0000 -1.0000 0.0031
vn 0.0000 0.6641 0.7477
vn 0.0000 -0.6814 -0.7319
vn 0.0000 -0.0001 -1.0000
vn 0.0000 -0.0003 1.0000
vn 0.0000 -0.0002 -1.0000
vn 0.9510 0.0000 -0.3091
usemtl None.018
s 1
f 1/1/1 2/2/1 3/3/1 4/4/1
f 2/5/2 5/6/2 6/7/2 3/8/2
f 5/9/3 7/10/3 8/11/3 6/12/3
f 3/13/4 6/14/4 8/15/4 9/16/4 4/17/4
f 7/18/5 10/19/5 9/20/5 8/21/5
f 10/22/6 1/1/6 4/4/6 9/23/6
f 1/24/7 10/25/7 7/26/7 5/27/7 2/28/7
f 11/29/8 12/30/8 13/31/8 14/32/8
f 14/33/3 13/34/3 15/35/3 16/36/3
f 16/37/9 15/38/9 17/39/9 18/40/9
f 18/41/10 17/42/10 12/43/10 11/44/10
f 19/45/9 20/46/9 21/47/9 22/48/9
f 15/49/7 13/50/7 12/51/7 17/52/7
f 23/53/4 24/54/4 11/55/4 14/56/4
f 19/57/4 23/53/4 14/56/4 16/58/4
f 20/59/4 19/57/4 16/58/4 18/60/4
f 24/54/4 20/59/4 18/60/4 11/55/4
f 25/61/4 22/62/4 21/63/4 26/64/4
f 24/65/8 23/66/8 25/67/8 26/68/8
f 20/69/10 24/70/10 26/71/10 21/72/10
f 23/73/11 19/74/11 27/75/11 28/76/11
f 29/77/8 28/78/8 30/79/8 31/80/8
f 19/45/9 22/48/9 32/81/9 27/82/9
f 22/62/12 25/61/12 29/83/12 32/84/12
f 25/67/8 23/66/8 28/78/8 29/77/8
f 33/85/9 34/86/9 35/87/9 36/88/9
f 32/89/13 29/90/13 31/91/13 34/92/13
f 27/82/9 32/81/9 34/86/9 33/85/9
f 28/93/14 27/94/14 33/95/14 30/96/14
f 36/88/9 35/87/9 37/97/9 38/98/9
f 30/96/15 33/95/15 36/99/15 39/100/15
f 31/80/8 30/79/8 39/101/8 40/102/8
f 34/92/16 31/91/16 40/103/16 35/104/16
f 41/105/8 42/106/8 43/107/8 44/108/8
f 39/100/17 36/99/17 38/109/17 42/110/17
f 40/102/8 39/101/8 42/106/8 41/105/8
f 35/104/18 40/103/18 41/111/18 37/112/18
f 43/113/19 45/114/19 46/115/19 44/116/19
f 37/112/20 41/111/20 44/117/20 46/118/20
f 38/98/9 37/97/9 46/119/9 45/120/9
f 42/110/21 38/109/21 45/121/21 43/122/21
f 47/123/9 48/124/9 49/125/9 50/126/9
f 51/127/7 52/128/7 53/129/7 54/130/7 55/131/7 56/132/7 57/133/7 58/134/7 59/135/7 60/136/7 61/137/7 62/138/7
f 63/139/4 64/140/4 65/141/4 66/142/4
f 67/143/22 68/144/22 69/145/22 70/146/22
f 71/147/4 72/148/4 73/149/4 74/150/4 75/151/4 76/152/4 77/153/4 78/154/4 79/155/4 80/156/4 81/157/4 82/158/4
f 83/159/7 84/160/7 85/161/7 86/162/7
f 87/163/9 88/164/9 89/165/9 90/166/9
f 91/167/7 92/168/7 93/169/7 94/170/7 95/171/7 96/172/7
f 97/173/10 98/174/10 99/175/10 100/176/10 101/177/10 52/178/10 51/179/10 62/180/10 61/181/10 60/182/10 59/183/10 102/184/10 103/185/10 104/186/10 96/187/10 95/188/10 105/189/10 106/190/10
f 107/191/3 108/192/3 50/193/3 49/194/3
f 109/195/3 110/196/3 90/197/3 89/198/3
f 88/199/4 111/200/4 109/201/4 89/202/4
f 112/203/8 113/204/8 108/205/8 107/206/8
f 48/207/4 112/208/4 107/209/4 49/210/4
f 111/211/8 114/212/8 110/213/8 109/214/8
f 114/215/7 87/216/7 90/217/7 110/218/7
f 113/219/7 47/220/7 50/221/7 108/222/7
f 114/223/3 111/224/3 115/225/3 116/226/3 58/227/3 57/228/3 56/229/3 55/230/3 54/231/3 53/232/3 117/233/3 118/234/3 48/235/3 47/236/3 113/237/3 112/238/3 88/239/3 87/240/3
f 103/241/8 102/242/8 59/243/8 58/244/8 116/245/8 115/246/8 119/247/8 120/248/8 80/249/8 79/250/8 121/251/8 122/252/8
f 123/253/23 124/254/23 125/255/23 126/256/23 127/257/23 128/258/23 129/259/23 130/260/23
f 131/261/8 132/262/8 92/263/8 91/264/8 96/265/8 104/266/8 69/267/8 68/268/8 133/269/8 134/270/8 135/271/8 136/272/8
f 121/273/10 79/274/10 78/275/10 77/276/10 76/277/10 75/278/10 74/279/10 137/280/10 138/281/10 139/282/10 140/283/10 141/284/10 142/285/10 143/286/10 144/287/10 134/288/10 133/289/10 122/290/10
f 145/291/9 124/292/9 123/293/9 130/294/9 129/295/9 146/296/9 140/297/9 139/298/9 147/299/9 148/300/9 99/301/9 98/302/9
f 149/303/7 125/304/7 124/305/7 145/306/7 98/307/7 97/308/7
f 150/309/23 151/310/23 93/311/23 92/312/23 132/313/23 131/314/23 136/315/23 152/316/23
f 106/317/4 99/318/4 148/319/4 153/320/4
f 126/321/8 125/322/8 149/323/8 97/324/8 106/325/8 153/326/8 154/327/8 142/328/8 141/329/8 155/330/8 128/331/8 127/332/8
f 67/333/9 70/334/9 105/335/9 95/336/9 94/337/9 93/338/9 151/339/9 150/340/9 152/341/9 156/342/9 144/343/9 143/344/9
f 139/345/7 142/346/7 154/347/7 147/348/7
f 146/349/4 129/350/4 128/351/4 155/352/4 141/353/4 140/354/4
f 143/355/7 133/356/7 68/357/7 67/358/7
f 104/359/4 105/360/4 70/361/4 69/362/4
f 156/363/4 152/364/4 136/365/4 135/366/4 134/367/4 144/368/4
f 157/369/3 86/370/3 85/371/3 158/372/3
f 65/373/3 159/374/3 160/375/3 66/376/3
f 161/377/8 83/378/8 86/379/8 157/380/8
f 84/381/9 162/382/9 158/383/9 85/384/9
f 163/385/7 164/386/7 160/387/7 159/388/7
f 164/389/9 63/390/9 66/391/9 160/392/9
f 64/393/8 163/394/8 159/395/8 65/396/8
f 162/397/4 161/398/4 157/399/4 158/400/4
f 153/401/24 148/402/24 147/403/24 154/404/24
f 162/405/3 84/406/3 165/407/3 166/408/3 73/409/3 72/410/3 71/411/3 82/412/3 81/413/3 80/414/3 120/415/3 119/416/3 163/417/3 64/418/3 63/419/3 164/420/3 83/421/3 161/422/3
f 165/423/3 119/424/3 115/425/3 118/426/3
f 104/186/10 103/185/10 122/290/10 133/289/10 143/286/10 142/285/10 139/282/10 138/281/10 100/176/10 99/175/10 106/190/10 105/189/10
f 167/427/7 168/428/7 169/429/7 170/430/7
f 170/431/3 169/432/3 171/433/3 172/434/3
f 173/435/4 174/436/4 172/437/4 171/438/4
f 168/439/9 173/440/9 171/441/9 169/442/9
f 174/443/8 167/444/8 170/445/8 172/446/8
f 175/447/8 176/448/8 177/449/8 178/450/8
f 178/451/3 177/452/3 179/453/3 180/454/3
f 180/455/9 179/456/9 181/457/9 182/458/9
f 182/459/10 181/460/10 176/461/10 175/462/10
f 178/463/4 180/464/4 182/465/4 175/466/4
f 179/467/7 177/468/7 176/469/7 181/470/7
f 183/471/8 184/472/8 185/473/8 186/474/8
f 186/475/3 185/476/3 187/477/3 188/478/3
f 188/479/9 187/480/9 189/481/9 190/482/9
f 190/483/10 189/484/10 184/485/10 183/486/10
f 186/487/4 188/488/4 190/489/4 183/490/4
f 187/491/7 185/492/7 184/493/7 189/494/7
f 191/495/1 192/496/1 193/497/1 194/498/1
f 192/499/2 195/500/2 196/501/2 193/502/2
f 195/503/3 197/504/3 198/505/3 196/506/3
f 193/507/4 196/508/4 198/509/4 199/510/4 194/511/4
f 197/512/25 200/513/25 199/514/25 198/515/25
f 200/516/6 191/495/6 194/498/6 199/517/6
f 191/518/7 200/519/7 197/520/7 195/521/7 192/522/7
f 118/523/9 117/524/9 53/525/9 52/526/9 101/527/9 100/528/9 138/529/9 137/530/9 74/531/9 73/532/9 166/533/9 165/534/9
