# Blender v2.80 (sub 75) OBJ File: 'PlanterRowUnit.blend'
# www.blender.org
mtllib PlanterRowUnit.mtl
o planter_Cube.006
v -0.094231 0.158659 1.022016
v 0.102119 0.158659 1.022016
v -0.094231 0.337608 1.022019
v 0.102119 0.337608 1.022018
v -0.094231 0.158665 -0.420381
v 0.102119 0.158665 -0.420381
v -0.094231 0.337614 -0.420378
v 0.102119 0.337614 -0.420378
v -0.094231 0.337613 -0.238553
v 0.102119 0.337613 -0.238553
v -0.094231 0.158664 -0.238555
v 0.102119 0.158664 -0.238555
v 0.102119 0.046480 -0.420381
v -0.094231 0.046480 -0.420381
v -0.094231 0.046479 -0.238556
v 0.102119 0.046479 -0.238556
v 0.101735 -0.042807 -0.805638
v -0.094615 -0.042807 -0.805638
v 0.101735 -0.159941 -0.805639
v -0.094615 -0.159941 -0.805639
v -0.187517 -0.103729 -0.778150
v 0.203024 -0.102840 -0.776349
v -0.166484 -0.227783 -0.730381
v 0.180440 -0.227129 -0.729919
v -0.157409 -0.292871 -0.612930
v 0.166986 -0.292709 -0.613164
v -0.164537 -0.268538 -0.480754
v 0.168956 -0.268896 -0.480716
v -0.184533 -0.166170 -0.395699
v 0.185429 -0.166831 -0.394548
v -0.208040 -0.033665 -0.397562
v 0.208697 -0.034272 -0.394979
v -0.224060 0.066975 -0.485474
v 0.227872 0.066756 -0.481808
v -0.225097 0.088661 -0.618298
v 0.233983 0.088980 -0.614407
v -0.210664 0.021244 -0.733885
v 0.224170 0.022001 -0.730730
v 0.106139 -0.085839 -0.777965
v 0.083556 -0.210128 -0.731534
v 0.070101 -0.275709 -0.614780
v 0.072071 -0.251895 -0.482331
v 0.088544 -0.149830 -0.396163
v 0.111812 -0.017271 -0.396595
v 0.130988 0.083756 -0.483424
v 0.137098 0.105980 -0.616022
v 0.127285 0.039002 -0.732345
v -0.069649 -0.210574 -0.728327
v -0.060573 -0.275662 -0.610876
v -0.067701 -0.251330 -0.478700
v -0.087697 -0.148961 -0.393644
v -0.111205 -0.016457 -0.395508
v -0.127225 0.084184 -0.483420
v -0.128261 0.105869 -0.616244
v -0.113829 0.038453 -0.731830
v -0.090681 -0.086520 -0.776096
v 0.273321 0.008752 0.081479
v 0.273458 -0.153313 0.141640
v 0.273530 -0.238791 0.291901
v 0.273503 -0.207686 0.461951
v 0.273389 -0.074552 0.572222
v 0.273242 0.098316 0.571118
v 0.273130 0.230031 0.459156
v 0.273106 0.258962 0.288722
v 0.273182 0.171572 0.139566
v 0.112792 0.008179 0.013148
v 0.112967 -0.197706 0.089576
v 0.113058 -0.306296 0.280464
v 0.113024 -0.266780 0.496493
v 0.112879 -0.097649 0.636580
v 0.112692 0.121959 0.635178
v 0.112550 0.289288 0.492942
v 0.112520 0.326041 0.276426
v 0.112615 0.215023 0.086941
v -0.265303 0.007531 0.081505
v -0.265080 -0.154287 0.142328
v -0.264940 -0.239150 0.292937
v -0.264947 -0.207350 0.462858
v -0.265099 -0.073766 0.572584
v -0.265324 0.099096 0.570774
v -0.265517 0.230352 0.458274
v -0.265588 0.258586 0.287724
v -0.265504 0.170587 0.138926
v -0.104510 -0.198546 0.090414
v -0.104331 -0.306355 0.281744
v -0.104340 -0.265956 0.497609
v -0.104533 -0.096254 0.637004
v -0.104820 0.123346 0.634704
v -0.105065 0.290092 0.491785
v -0.105155 0.325960 0.275122
v -0.105048 0.214168 0.086092
v -0.104793 0.007024 0.013145
v 0.273496 -0.197569 0.089577
v 0.273321 0.008316 0.013149
v 0.273588 -0.306159 0.280465
v 0.273553 -0.266643 0.496493
v 0.273409 -0.097512 0.636581
v 0.273222 0.122096 0.635178
v 0.273080 0.289424 0.492943
v 0.273049 0.326178 0.276427
v 0.273145 0.215160 0.086942
v 0.225487 -0.153354 0.141640
v 0.225350 0.008711 0.081479
v 0.225560 -0.238832 0.291901
v 0.225532 -0.207727 0.461950
v 0.225418 -0.074593 0.572222
v 0.225271 0.098275 0.571118
v 0.225160 0.229990 0.459155
v 0.225136 0.258921 0.288722
v 0.225211 0.171531 0.139566
v -0.265316 0.006815 0.013177
v -0.265033 -0.198755 0.090446
v -0.264854 -0.306564 0.281776
v -0.264863 -0.266165 0.497641
v -0.265056 -0.096463 0.637036
v -0.265342 0.123138 0.634736
v -0.265588 0.289883 0.491818
v -0.265678 0.325751 0.275154
v -0.265571 0.213959 0.086124
v -0.217332 0.007593 0.081495
v -0.217109 -0.154224 0.142319
v -0.216969 -0.239088 0.292927
v -0.216976 -0.207287 0.462848
v -0.217128 -0.073704 0.572575
v -0.217353 0.099158 0.570765
v -0.217547 0.230414 0.458264
v -0.217618 0.258648 0.287714
v -0.217533 0.170650 0.138916
v -0.245328 0.007557 0.081501
v -0.217334 0.008794 0.081918
v -0.104821 0.124499 0.633716
v 0.169042 -0.268365 -0.480268
v -0.111072 -0.017205 -0.395498
vt 0.830450 0.098346
vt 0.830450 0.120477
vt 0.850620 0.120477
vt 0.850620 0.098346
vt 0.962845 0.581619
vt 0.940714 0.581618
vt 0.940710 0.694898
vt 0.962841 0.694899
vt 0.940709 0.715068
vt 0.962841 0.715069
vt 0.802385 0.186075
vt 0.780253 0.186076
vt 0.780283 0.971428
vt 0.802415 0.971427
vt 0.967443 0.196531
vt 0.967444 0.148347
vt 0.920022 0.148346
vt 0.920022 0.196530
vt 0.967443 0.196531
vt 0.967442 0.530581
vt 0.920021 0.530580
vt 0.920022 0.196530
vt 0.967444 0.148347
vt 0.920022 0.148346
vt 0.967442 0.530581
vt 0.920021 0.530580
vt 0.890293 0.148346
vt 0.890293 0.196530
vt 0.848793 0.184303
vt 0.826659 0.184303
vt 0.826633 0.969655
vt 0.848764 0.969656
vt 0.751373 0.660572
vt 0.729241 0.660573
vt 0.729245 0.773857
vt 0.751377 0.773856
vt 0.890293 0.196530
vt 0.890293 0.148346
vt 0.866632 0.046254
vt 0.835592 0.046253
vt 0.729246 0.786503
vt 0.751378 0.786502
vt 0.962874 0.956164
vt 0.940743 0.956163
vt 0.940742 0.969365
vt 0.962873 0.969367
vt 0.751407 0.419416
vt 0.729275 0.419416
vt 0.835592 0.046253
vt 0.866632 0.046254
vt 0.316177 0.868035
vt 0.305116 0.867786
vt 0.301883 0.899662
vt 0.312943 0.899912
vt 0.293929 0.971900
vt 0.304990 0.972149
vt 0.316177 0.476484
vt 0.305116 0.476234
vt 0.296103 0.557784
vt 0.307164 0.558034
vt 0.296073 0.558066
vt 0.290212 0.612056
vt 0.301272 0.612306
vt 0.289895 0.627130
vt 0.300956 0.627380
vt 0.293359 0.682000
vt 0.304419 0.682249
vt 0.298690 0.763963
vt 0.309750 0.764212
vt 0.408872 0.666072
vt 0.452445 0.716771
vt 0.373386 0.672572
vt 0.303358 0.836229
vt 0.314418 0.836479
vt 0.453130 0.716501
vt 0.350989 0.699826
vt 0.351487 0.735213
vt 0.441308 0.749878
vt 0.440908 0.756885
vt 0.351257 0.741860
vt 0.374442 0.768836
vt 0.409848 0.774770
vt 0.452311 0.723365
vt 0.440489 0.756741
vt 0.350665 0.741877
vt 0.350170 0.706689
vt 0.317713 0.868977
vt 0.306557 0.868693
vt 0.302425 0.901399
vt 0.313580 0.901682
vt 0.292456 0.974265
vt 0.303612 0.974548
vt 0.317713 0.477131
vt 0.306560 0.476739
vt 0.294555 0.558256
vt 0.305707 0.558649
vt 0.286785 0.611976
vt 0.297937 0.612368
vt 0.286382 0.627097
vt 0.286376 0.627292
vt 0.297532 0.627575
vt 0.291038 0.683057
vt 0.302193 0.683340
vt 0.298126 0.765536
vt 0.309281 0.765819
vt 0.304284 0.837701
vt 0.315439 0.837985
vt 0.039113 0.812313
vt 0.021019 0.812313
vt 0.021018 0.865284
vt 0.039112 0.865284
vt 0.021016 0.984841
vt 0.039110 0.984841
vt 0.039113 0.167719
vt 0.021019 0.167719
vt 0.021016 0.302384
vt 0.039110 0.302384
vt 0.021014 0.391720
vt 0.039108 0.391720
vt 0.021014 0.416489
vt 0.039108 0.416489
vt 0.021015 0.507090
vt 0.039109 0.507090
vt 0.021017 0.642049
vt 0.039111 0.642049
vt 0.055171 0.698453
vt 0.055171 0.791901
vt 0.060578 0.791901
vt 0.060578 0.698453
vt 0.021019 0.760765
vt 0.039113 0.760765
vt 0.090444 0.912517
vt 0.235726 0.887855
vt 0.198034 0.932197
vt 0.140657 0.941937
vt 0.060526 0.326562
vt 0.060443 0.254925
vt 0.055036 0.254925
vt 0.055119 0.326562
vt 0.070890 0.857397
vt 0.090220 0.912290
vt 0.235340 0.888528
vt 0.235602 0.888222
vt 0.021046 0.340973
vt 0.039140 0.340968
vt 0.039074 0.287541
vt 0.020980 0.287546
vt 0.038913 0.167719
vt 0.020819 0.167723
vt 0.021046 0.984850
vt 0.039140 0.984845
vt 0.038957 0.850279
vt 0.020864 0.850284
vt 0.038839 0.761351
vt 0.020745 0.761356
vt 0.038833 0.736557
vt 0.020740 0.736562
vt 0.038834 0.735928
vt 0.038904 0.645553
vt 0.020810 0.645558
vt 0.039011 0.510506
vt 0.020918 0.510510
vt 0.039105 0.392062
vt 0.021012 0.392067
vt 0.219158 0.647480
vt 0.189746 0.612357
vt 0.198816 0.596684
vt 0.236180 0.641303
vt 0.144639 0.604357
vt 0.141513 0.586521
vt 0.104943 0.627222
vt 0.091083 0.615569
vt 0.089232 0.670255
vt 0.071124 0.670236
vt 0.104857 0.713318
vt 0.090974 0.724944
vt 0.144507 0.736264
vt 0.141345 0.754093
vt 0.189630 0.728354
vt 0.198668 0.744045
vt 0.219112 0.693290
vt 0.236121 0.699501
vt 0.189758 0.612346
vt 0.144519 0.736253
vt 0.104868 0.713308
vt 0.144651 0.604346
vt 0.055170 0.326245
vt 0.055169 0.345742
vt 0.060576 0.345742
vt 0.060577 0.326245
vt 0.055170 0.522069
vt 0.055170 0.616179
vt 0.060577 0.616180
vt 0.060577 0.522069
vt 0.055170 0.657876
vt 0.060577 0.657876
vt 0.055171 0.254923
vt 0.060578 0.254923
vt 0.055169 0.416065
vt 0.060576 0.416065
vt 0.055171 0.898136
vt 0.060578 0.898136
vt 0.189488 0.612175
vt 0.219043 0.647177
vt 0.236040 0.640932
vt 0.198494 0.596465
vt 0.144349 0.604359
vt 0.141150 0.586537
vt 0.104747 0.627387
vt 0.090839 0.615791
vt 0.089211 0.670483
vt 0.071104 0.670539
vt 0.105012 0.713483
vt 0.091177 0.725165
vt 0.144756 0.736266
vt 0.141667 0.754108
vt 0.189846 0.728172
vt 0.198948 0.743826
vt 0.219184 0.692988
vt 0.236219 0.699129
vt 0.219066 0.647192
vt 0.189511 0.612190
vt 0.144779 0.736281
vt 0.219067 0.647530
vt 0.060364 0.522008
vt 0.060465 0.416081
vt 0.055058 0.416082
vt 0.054957 0.522008
vt 0.060530 0.898136
vt 0.060398 0.791832
vt 0.054992 0.791833
vt 0.055123 0.898137
vt 0.060530 0.346079
vt 0.055123 0.346079
vt 0.060239 0.658382
vt 0.060275 0.616328
vt 0.054867 0.616328
vt 0.054832 0.658383
vt 0.057987 0.658383
vt 0.060284 0.698602
vt 0.054877 0.698603
vt 0.054832 0.658679
vt 0.089243 0.670244
vt 0.104955 0.627212
vt 0.219169 0.647469
vt 0.219123 0.693280
vt 0.189641 0.728343
vt 0.144372 0.604374
vt 0.104770 0.627402
vt 0.089234 0.670498
vt 0.105035 0.713498
vt 0.189869 0.728187
vt 0.219207 0.693003
vt 0.070889 0.857704
vt 0.091142 0.803144
vt 0.236098 0.829659
vt 0.141727 0.774368
vt 0.198975 0.784840
vt 0.236212 0.830028
vt 0.091366 0.802921
vt 0.199272 0.785057
vt 0.142068 0.774352
vt 0.140313 0.941915
vt 0.197729 0.932410
vt 0.374966 0.762091
vt 0.410439 0.767883
vt 0.409005 0.665988
vt 0.373705 0.672486
vt 0.440264 0.750105
vt 0.409203 0.767990
vt 0.373798 0.762056
vt 0.350613 0.735079
vt 0.350498 0.699684
vt 0.453089 0.723551
vt 0.440692 0.690364
vt 0.351142 0.706464
vt 0.409516 0.672853
vt 0.372886 0.679349
vt 0.408186 0.672851
vt 0.409619 0.774746
vt 0.374146 0.768954
vt 0.350668 0.742076
vt 0.439553 0.690234
vt 0.440047 0.683583
vt 0.293428 0.566142
vt 0.440373 0.683371
vt 0.374150 0.679211
vn 0.0000 -0.0000 1.0000
vn 0.0000 1.0000 0.0000
vn -0.0000 0.0000 -1.0000
vn -0.0000 -1.0000 -0.0000
vn -1.0000 0.0000 0.0000
vn 1.0000 0.0000 -0.0000
vn -1.0000 0.0000 0.0010
vn -0.0000 0.8861 -0.4634
vn 0.0000 -0.8814 0.4723
vn 1.0000 -0.0000 -0.0010
vn -0.0445 -0.3425 -0.9385
vn -0.1419 -0.8560 -0.4972
vn -0.1730 -0.9689 0.1768
vn -0.1231 -0.6285 0.7680
vn -0.0156 0.0060 0.9999
vn 0.0992 0.6377 0.7639
vn 0.1675 0.9710 0.1705
vn 0.9848 -0.1728 0.0164
vn 0.1575 0.8500 -0.5027
vn 0.0738 0.3312 -0.9407
vn -0.9844 -0.1749 -0.0209
vn -0.9848 0.1728 -0.0164
vn 0.9844 0.1749 0.0209
vn 0.0813 -0.3461 -0.9347
vn 0.1628 -0.8576 -0.4878
vn 0.1680 -0.9678 0.1872
vn 0.0947 -0.6252 0.7747
vn -0.0230 0.0100 0.9997
vn -0.1299 0.6405 0.7569
vn -0.1760 0.9713 0.1600
vn -0.1398 0.8476 -0.5118
vn -0.0381 0.3273 -0.9441
vn 0.0003 -0.3480 -0.9375
vn 0.0007 -0.8692 -0.4945
vn 0.0008 -0.9837 0.1799
vn 0.0005 -0.6379 0.7701
vn -0.0000 0.0064 1.0000
vn -0.0006 0.6477 0.7619
vn -0.0008 0.9859 0.1674
vn 0.0007 -0.8628 0.5055
vn -0.0007 0.8628 -0.5055
vn -0.0003 0.3360 -0.9419
vn -1.0000 -0.0009 -0.0000
vn 0.0007 -0.6508 -0.7593
vn 1.0000 0.0013 -0.0002
vn 0.0003 -0.3518 -0.9361
vn 0.0010 -0.8712 -0.4909
vn 0.0013 -0.9829 0.1840
vn 0.0010 -0.6347 0.7727
vn 0.0002 0.0105 0.9999
vn -0.0007 0.6508 0.7593
vn -0.0013 0.9866 0.1633
vn -0.0012 0.8607 -0.5090
vn -0.0006 0.3322 -0.9432
vn 1.0000 0.0009 0.0000
vn 0.0000 -0.0064 -1.0000
vn -0.0007 0.8692 0.4945
vn 0.0003 -0.3360 0.9419
vn 0.0006 -0.6477 -0.7619
vn -0.0008 0.9837 -0.1799
vn 0.0008 -0.9859 -0.1674
vn -0.0005 0.6379 -0.7701
vn -0.0003 0.3480 0.9375
vn -1.0000 -0.0013 0.0002
vn -0.0013 0.9829 -0.1840
vn 0.0013 -0.9866 -0.1633
vn -0.0010 0.6347 -0.7727
vn -0.0003 0.3518 0.9361
vn 0.0012 -0.8607 0.5090
vn -0.0002 -0.0105 -0.9999
vn -0.0010 0.8712 0.4909
vn 0.0006 -0.3322 0.9432
vn 0.0006 -0.3321 0.9433
vn 0.9848 -0.1729 0.0164
usemtl Material.002
s off
f 1/1/1 2/2/1 4/3/1 3/4/1
f 9/5/2 10/6/2 8/7/2 7/8/2
f 7/8/3 8/7/3 6/9/3 5/10/3
f 11/11/4 12/12/4 2/13/4 1/14/4
f 9/15/5 7/16/5 5/17/5 11/18/5
f 10/19/6 4/20/6 2/21/6 12/22/6
f 8/23/6 10/19/6 12/22/6 6/24/6
f 3/25/5 9/15/5 11/18/5 1/26/5
f 11/18/5 5/17/5 14/27/5 15/28/5
f 3/29/2 4/30/2 10/31/2 9/32/2
f 14/33/4 13/34/4 16/35/4 15/36/4
f 6/24/6 12/22/6 16/37/6 13/38/6
f 14/27/7 5/17/7 18/39/7 20/40/7
f 12/41/1 11/42/1 15/36/1 16/35/1
f 18/43/3 17/44/3 19/45/3 20/46/3
f 5/10/8 6/9/8 17/44/8 18/43/8
f 13/34/9 14/33/9 20/47/9 19/48/9
f 6/24/10 13/38/10 19/49/10 17/50/10
f 39/51/11 22/52/11 24/53/11 40/54/11
f 40/54/12 24/53/12 26/55/12 41/56/12
f 41/57/13 26/58/13 28/59/13 42/60/13
f 42/60/14 28/59/14 132/61/14 30/62/14 43/63/14
f 43/63/15 30/62/15 32/64/15 44/65/15
f 44/65/16 32/64/16 34/66/16 45/67/16
f 45/67/17 34/66/17 36/68/17 46/69/17
f 26/70/18 22/71/18 132/72/18
f 46/69/19 36/68/19 38/73/19 47/74/19
f 47/74/20 38/73/20 22/52/20 39/51/20
f 21/75/21 29/76/21 31/77/21 37/78/21
f 47/79/22 44/80/22 45/81/22 46/82/22
f 56/83/23 55/84/23 133/85/23 51/86/23
f 21/87/24 56/88/24 48/89/24 23/90/24
f 23/90/25 48/89/25 49/91/25 25/92/25
f 25/93/26 49/94/26 50/95/26 27/96/26
f 27/96/27 50/95/27 51/97/27 29/98/27
f 29/98/28 51/97/28 133/99/28 52/100/28 31/101/28
f 31/101/29 52/100/29 53/102/29 33/103/29
f 33/103/30 53/102/30 54/104/30 35/105/30
f 35/105/31 54/104/31 55/106/31 37/107/31
f 37/107/32 55/106/32 56/88/32 21/87/32
f 66/108/33 94/109/33 93/110/33 67/111/33
f 67/111/34 93/110/34 95/112/34 68/113/34
f 68/114/35 95/115/35 96/116/35 69/117/35
f 69/117/36 96/116/36 97/118/36 70/119/36
f 70/119/37 97/118/37 98/120/37 71/121/37
f 71/121/38 98/120/38 99/122/38 72/123/38
f 72/123/39 99/122/39 100/124/39 73/125/39
f 65/126/40 64/127/40 109/128/40 110/129/40
f 73/125/41 100/124/41 101/130/41 74/131/41
f 74/131/42 101/130/42 94/109/42 66/108/42
f 74/132/43 71/133/43 72/134/43 73/135/43
f 80/136/44 81/137/44 126/138/44 125/139/44
f 92/140/45 91/141/45 131/142/45 88/143/45
f 111/144/46 92/145/46 84/146/46 112/147/46
f 112/147/47 84/146/47 85/148/47 113/149/47
f 113/150/48 85/151/48 86/152/48 114/153/48
f 114/153/49 86/152/49 87/154/49 115/155/49
f 115/155/50 87/154/50 88/156/50 116/157/50
f 116/157/51 88/156/51 131/158/51 89/159/51 117/160/51
f 117/160/52 89/159/52 90/161/52 118/162/52
f 118/162/53 90/161/53 91/163/53 119/164/53
f 119/164/54 91/163/54 92/145/54 111/144/54
f 57/165/55 58/166/55 93/167/55 94/168/55
f 58/166/55 59/169/55 95/170/55 93/167/55
f 59/169/55 60/171/55 96/172/55 95/170/55
f 60/171/55 61/173/55 97/174/55 96/172/55
f 61/173/55 62/175/55 98/176/55 97/174/55
f 62/175/55 63/177/55 99/178/55 98/176/55
f 63/177/55 64/179/55 100/180/55 99/178/55
f 64/179/55 65/181/55 101/182/55 100/180/55
f 65/181/55 57/165/55 94/168/55 101/182/55
f 102/183/55 108/184/55 107/185/55 104/186/55
f 62/187/56 61/188/56 106/189/56 107/190/56
f 59/191/57 58/192/57 102/193/57 104/194/57
f 57/195/58 65/126/58 110/129/58 103/196/58
f 63/197/59 62/187/59 107/190/59 108/198/59
f 60/199/60 59/191/60 104/194/60 105/200/60
f 64/127/61 63/201/61 108/202/61 109/128/61
f 61/188/62 60/199/62 105/200/62 106/189/62
f 58/192/63 57/195/63 103/196/63 102/193/63
f 76/203/64 75/204/64 111/205/64 112/206/64
f 77/207/64 76/203/64 112/206/64 113/208/64
f 78/209/64 77/207/64 113/208/64 114/210/64
f 79/211/64 78/209/64 114/210/64 115/212/64
f 80/213/64 79/211/64 115/212/64 116/214/64
f 81/215/64 80/213/64 116/214/64 117/216/64
f 82/217/64 81/215/64 117/216/64 118/218/64
f 83/219/64 82/217/64 118/218/64 119/220/64
f 75/204/64 83/219/64 119/220/64 111/205/64
f 120/221/64 121/222/64 126/223/64 130/224/64
f 77/225/65 78/226/65 123/227/65 122/228/65
f 81/229/66 82/230/66 127/231/66 126/232/66
f 78/226/67 79/233/67 124/234/67 123/227/67
f 75/235/68 76/236/68 121/237/68 120/238/68 129/239/68
f 82/230/69 83/240/69 128/241/69 127/231/69
f 79/233/70 80/136/70 125/139/70 124/234/70
f 76/236/71 77/225/71 122/228/71 121/237/71
f 83/240/72 75/235/72 129/239/72 130/242/72 128/241/72
f 107/185/55 106/243/55 105/244/55 104/186/55
f 108/184/55 103/245/55 110/246/55 109/247/55
f 122/248/64 123/249/64 124/250/64 125/251/64
f 121/222/64 122/248/64 125/251/64 126/223/64
f 126/223/64 127/252/64 128/253/64 130/224/64
f 129/239/73 120/238/73 130/242/73
f 103/245/55 108/184/55 102/183/55
f 66/254/43 67/255/43 70/256/43 71/133/43
f 67/255/43 68/257/43 69/258/43 70/256/43
f 71/133/43 74/132/43 66/254/43
f 88/143/45 87/259/45 84/260/45 92/140/45
f 87/259/45 86/261/45 85/262/45 84/260/45
f 91/141/45 90/263/45 89/264/45 131/142/45
f 31/77/21 33/265/21 35/266/21 37/78/21
f 25/267/21 27/268/21 21/75/21
f 29/76/21 21/75/21 27/268/21
f 38/269/18 36/270/18 34/271/18 32/272/18
f 22/71/18 38/269/18 32/272/18 30/273/18
f 22/71/18 30/273/18 132/72/18
f 44/80/22 39/274/22 40/275/22 43/276/22
f 39/274/22 44/80/22 47/79/22
f 43/276/22 40/275/22 41/277/22
f 51/86/23 50/278/23 49/279/23
f 55/84/23 54/280/23 53/281/23 52/282/23 133/85/23
f 48/283/23 56/83/23 51/86/23
f 22/71/18 26/70/18 24/284/18
f 26/58/74 132/285/74 28/59/74
f 25/267/21 21/75/21 23/286/21
f 43/276/22 41/277/22 42/287/22
f 51/86/23 49/279/23 48/283/23
